<?xml version="1.0" standalone="no"?>
<!DOCTYPE svg PUBLIC "-//W3C//DTD SVG 1.1//EN" "http://www.w3.org/Graphics/SVG/1.1/DTD/svg11.dtd" >
<svg xmlns="http://www.w3.org/2000/svg" xmlns:xlink="http://www.w3.org/1999/xlink" version="1.1">
<metadata></metadata>
<defs>
<font id="nimbus_sans_lregular" horiz-adv-x="1138" >
<font-face units-per-em="2048" ascent="1493" descent="-555" />
<missing-glyph horiz-adv-x="569" />
<glyph unicode="&#xfb01;" horiz-adv-x="1024" d="M25 934v139h143v182q0 115 66.5 179.5t185.5 64.5q47 0 96 -10v-141q-39 2 -59 2q-119 0 -119 -109v-168h178v-139h-178v-934h-170v934h-143zM723 0v1073h170v-1073h-170zM723 1278v215h170v-215h-170z" />
<glyph unicode="&#xfb02;" horiz-adv-x="1024" d="M35 934v139h143v182q0 115 66.5 179.5t185.5 64.5q47 0 96 -10v-141q-39 2 -59 2q-119 0 -119 -109v-168h178v-139h-178v-934h-170v934h-143zM711 0v1493h170v-1493h-170z" />
<glyph unicode="&#xfb03;" horiz-adv-x="1593" d="M37 934v139h143v182q0 115 66.5 179.5t185.5 64.5q47 0 96 -10v-141q-39 2 -59 2q-119 0 -119 -109v-168h178v-139h-178v-934h-170v934h-143zM606 934v139h144v182q0 115 66 179.5t185 64.5q48 0 97 -10v-141q-39 2 -60 2q-118 0 -118 -109v-168h178v-139h-178v-934h-170 v934h-144zM1274 1278v215h172v-215h-172zM1276 0v1073h170v-1073h-170z" />
<glyph horiz-adv-x="0" />
<glyph horiz-adv-x="682" />
<glyph unicode=" "  horiz-adv-x="569" />
<glyph unicode="&#x09;" horiz-adv-x="569" />
<glyph unicode="&#xa0;" horiz-adv-x="569" />
<glyph unicode="!" horiz-adv-x="569" d="M254 0v213h172v-213h-172zM256 801v692h170v-692l-45 -457h-80z" />
<glyph unicode="&#x22;" horiz-adv-x="727" d="M106 1225v227h191v-227l-55 -275h-80zM434 1225v227h191v-227l-56 -275h-80z" />
<glyph unicode="#" d="M29 391v139h233l64 357h-222v139h248l74 401h156l-74 -401h256l72 401h157l-73 -401h190v-139h-217l-64 -357h215v-139h-239l-80 -432h-156l78 432h-254l-80 -432h-155l78 432h-207zM418 530h256l63 357h-254z" />
<glyph unicode="$" d="M82 426h162q9 -100 18.5 -140t32.5 -75q73 -98 217 -117v557q-112 34 -165.5 56t-94.5 51q-143 106 -143 299q0 175 103 279.5t300 129.5v111h121v-111q186 -13 291.5 -120.5t105.5 -282.5h-162q-1 112 -66.5 183.5t-168.5 76.5v-510q141 -43 184.5 -59t83.5 -39 q174 -99 174 -316q0 -122 -49.5 -220.5t-138.5 -153.5q-101 -61 -254 -72v-211h-121v211q-217 14 -328.5 136.5t-101.5 336.5zM274 1077q0 -94 58.5 -155t179.5 -93v492q-114 -15 -176 -79t-62 -165zM633 94q67 8 109.5 24.5t78.5 51.5q86 83 86 205q0 101 -58.5 156.5 t-215.5 101.5v-539z" />
<glyph unicode="%" horiz-adv-x="1820" d="M59 1053q0 145 102 247.5t247 102.5q148 0 249 -102.5t101 -251.5q0 -141 -103 -244t-245 -103q-146 0 -248.5 103t-102.5 248zM201 1053q0 -86 61.5 -146.5t147.5 -60.5q85 0 145.5 60t60.5 145q0 88 -60 148.5t-148 60.5q-86 0 -146.5 -60.5t-60.5 -146.5zM438 -41 l809 1493h135l-809 -1493h-135zM1061 311q0 145 101.5 246.5t246.5 101.5q148 0 249 -102t101 -250q0 -142 -102.5 -244t-245.5 -102q-146 0 -248 102t-102 248zM1202 311q0 -86 60.5 -146.5t148.5 -60.5q85 0 146 60t61 143q0 88 -60.5 148.5t-148.5 60.5q-86 0 -146.5 -60 t-60.5 -145z" />
<glyph unicode="&#x26;" horiz-adv-x="1366" d="M106 360q0 141 70.5 234t261.5 203q-97 121 -131.5 191t-34.5 142q0 135 101.5 228.5t249.5 93.5q146 0 239.5 -90.5t93.5 -231.5q0 -110 -61.5 -187.5t-220.5 -168.5l272 -334q31 54 48.5 121t15.5 123h164q0 -192 -119 -375l250 -309h-224l-127 160q-97 -94 -157 -135 q-113 -72 -271 -72q-189 0 -304.5 111.5t-115.5 295.5zM279 375q0 -109 79 -185.5t189 -76.5q80 0 151.5 39t157.5 129l-328 409q-139 -89 -194 -158.5t-55 -156.5zM440 1133q0 -56 25 -99.5t119 -150.5q117 72 164 128t47 124q0 75 -51 124.5t-128 49.5q-80 0 -128 -48.5 t-48 -127.5z" />
<glyph unicode="'" horiz-adv-x="391" d="M98 1225v227h193v-227l-55 -275h-82z" />
<glyph unicode="(" horiz-adv-x="681" d="M150 530q0 242 90 502t243 461h113q-135 -218 -208 -468.5t-73 -494.5q0 -245 73 -494.5t208 -469.5h-113q-154 201 -243.5 461t-89.5 503z" />
<glyph unicode=")" horiz-adv-x="681" d="M78 -434q135 218 207.5 467.5t72.5 494.5q0 246 -72.5 495.5t-207.5 469.5h112q154 -201 244 -461.5t90 -503.5q0 -242 -90 -501.5t-244 -460.5h-112z" />
<glyph unicode="*" horiz-adv-x="796" d="M82 1221l39 120l217 -77l-10 229h129l-11 -229l218 77l38 -120l-221 -62l144 -182l-105 -74l-127 191l-129 -191l-102 74l141 182z" />
<glyph unicode="+" horiz-adv-x="1196" d="M102 403v144h424v424h144v-424h424v-144h-424v-423h-144v423h-424z" />
<glyph unicode="," horiz-adv-x="569" d="M178 0v213h215v-246q0 -130 -57 -200.5t-158 -67.5v78q72 3 97.5 41.5t25.5 144.5v37h-123z" />
<glyph unicode="-" horiz-adv-x="681" d="M94 492v147h488v-147h-488z" />
<glyph unicode="." horiz-adv-x="569" d="M178 0v213h213v-213h-213z" />
<glyph unicode="/" horiz-adv-x="569" d="M-16 -41l485 1534h113l-486 -1534h-112z" />
<glyph unicode="0" d="M88 702q0 400 141 590q57 75 145 117.5t189 42.5q103 0 190 -41.5t144 -118.5q141 -192 141 -602q0 -358 -122.5 -547.5t-352.5 -189.5q-233 0 -354 190t-121 559zM272 700q0 -598 287 -598q151 0 223 148t72 457q0 585 -291 585t-291 -592z" />
<glyph unicode="1" d="M209 1034v129q75 9 121 17.5t87.5 24t64.5 32.5t44.5 49t35 69t30.5 97h119v-1452h-181v1034h-321z" />
<glyph unicode="2" d="M70 0q8 163 46.5 269t122 189t238.5 171l189 106q196 112 196 287q0 117 -82 194.5t-205 77.5q-82 0 -148 -37.5t-101 -103.5q-34 -65 -43 -205h-181q3 110 21.5 183.5t56.5 132.5q120 188 402 188q201 0 329 -113q136 -127 136 -313q0 -270 -308 -438l-204 -111 q-134 -78 -192 -144t-71 -155h764v-178h-966z" />
<glyph unicode="3" d="M66 422h180q9 -158 83 -233.5t222 -75.5q141 0 221 77t80 213q0 131 -76 198t-225 67l-76 -2h-22v153q170 3 239 31q117 48 117 197q0 117 -68 182t-188 65q-84 0 -148.5 -34.5t-95.5 -94.5q-30 -59 -33 -182h-180q4 232 119.5 350.5t335.5 118.5q207 0 324.5 -106 t117.5 -293q0 -219 -202 -301q130 -44 187.5 -125.5t57.5 -220.5q0 -206 -133.5 -329.5t-357.5 -123.5q-304 0 -416 211q-52 98 -63 258z" />
<glyph unicode="4" d="M57 348v191l660 913h133v-942h215v-162h-215v-348h-180v348h-613zM215 510h455v635z" />
<glyph unicode="5" d="M72 356h180q32 -123 105.5 -183t191.5 -60q148 0 232.5 89.5t84.5 246.5q0 161 -84.5 254.5t-230.5 93.5q-86 0 -145.5 -30t-122.5 -105h-166l108 790h750v-178h-604l-58 -406q121 88 269 88q209 0 339 -134t130 -349q0 -230 -139 -375t-359 -145q-124 0 -228 45.5 t-165 128.5q-32 39 -50.5 88t-37.5 141z" />
<glyph unicode="6" d="M88 662q0 197 31.5 337t99.5 246q64 98 166.5 152.5t222.5 54.5q166 0 276 -100.5t136 -278.5h-180q-22 104 -85.5 161.5t-158.5 57.5q-155 0 -238.5 -142.5t-85.5 -408.5q119 162 334 162q195 0 320 -129.5t125 -331.5q0 -213 -134.5 -351t-341.5 -138q-244 0 -364 180 q-65 97 -94 221t-29 308zM283 438q0 -139 84.5 -232t210.5 -93q125 0 206.5 89.5t81.5 225.5q0 146 -75.5 230.5t-206.5 84.5q-133 0 -217 -85t-84 -220z" />
<glyph unicode="7" d="M94 1274v178h971v-152q-246 -328 -388 -640t-202 -660h-192q82 358 209.5 631t386.5 643h-785z" />
<glyph unicode="8" d="M76 403q0 241 248 361q-112 69 -154.5 134t-42.5 167q0 170 122 278.5t314 108.5q193 0 314.5 -107.5t121.5 -279.5q0 -103 -42.5 -167.5t-155.5 -133.5q250 -119 250 -363q0 -198 -136.5 -323t-351.5 -125q-217 0 -352 125t-135 325zM260 399q0 -127 83.5 -206.5 t215.5 -79.5q140 0 223.5 78t83.5 208q0 127 -84 206t-219 79q-136 0 -219.5 -78.5t-83.5 -206.5zM311 1063q0 -103 68.5 -165t183.5 -62q114 0 183 62t69 163q0 106 -68.5 168.5t-183.5 62.5t-183.5 -62.5t-68.5 -166.5z" />
<glyph unicode="9" d="M78 963q0 214 134 351.5t341 137.5q244 0 367 -180q65 -97 93.5 -221.5t28.5 -307.5q0 -197 -31.5 -337t-99.5 -246q-65 -98 -167.5 -152.5t-223.5 -54.5q-166 0 -275.5 100.5t-135.5 278.5h180q22 -105 85 -162t158 -57q155 0 238.5 142.5t85.5 408.5 q-70 -85 -149.5 -123.5t-182.5 -38.5q-196 0 -321 129t-125 332zM262 977q0 -146 76 -230.5t207 -84.5q133 0 217 85t84 220q0 141 -84.5 234t-210.5 93t-207.5 -89.5t-81.5 -227.5z" />
<glyph unicode=":" horiz-adv-x="569" d="M225 0v213h213v-213h-213zM225 860v213h213v-213h-213z" />
<glyph unicode=";" horiz-adv-x="569" d="M225 0v213h215v-246q0 -130 -57 -200.5t-158 -67.5v78q72 3 97.5 41.5t25.5 144.5v37h-123zM227 860v213h213v-213h-213z" />
<glyph unicode="&#x3c;" horiz-adv-x="1196" d="M92 406v141l1002 424v-162l-807 -330l807 -336v-161z" />
<glyph unicode="=" horiz-adv-x="1196" d="M102 227v144h992v-144h-992zM102 580v143h992v-143h-992z" />
<glyph unicode="&#x3e;" horiz-adv-x="1196" d="M102 -18v161l807 330l-807 336v162l1002 -424v-141z" />
<glyph unicode="?" d="M158 1038q0 238 112.5 359t335.5 121q199 0 317.5 -107t118.5 -287q0 -103 -44.5 -182.5t-159.5 -183.5q-98 -88 -129.5 -136.5t-32.5 -117.5v-96h-184v112q0 90 41 154t172 180q81 72 117 135.5t36 134.5q0 105 -72 169.5t-190 64.5q-138 0 -201 -77t-63 -243h-174z M492 0v213h184v-213h-184z" />
<glyph unicode="@" horiz-adv-x="2078" d="M70 528q0 201 86 395t237 330q135 123 317 194t365 71q176 0 337.5 -61t278.5 -163t187 -243t70 -295q0 -122 -45.5 -240.5t-130.5 -216.5q-154 -182 -381 -182q-199 0 -226 157q-71 -77 -140 -112t-151 -35q-142 0 -237.5 107.5t-95.5 267.5q0 145 74 277t196 211 t256 79q174 0 250 -178l45 135h170l-184 -573q-25 -73 -25 -103q0 -37 30.5 -63.5t71.5 -26.5q85 0 165 67t129.5 176.5t49.5 225.5q0 169 -97.5 314.5t-263.5 231t-359 85.5q-159 0 -307.5 -65t-257.5 -173.5t-174.5 -256.5t-65.5 -306q0 -144 59.5 -272.5t161 -220.5 t244 -145.5t301.5 -53.5q162 0 397 65l57 -137q-235 -86 -463 -86q-191 0 -363.5 64.5t-297 174t-197.5 261t-73 319.5zM725 500q0 -101 59 -171.5t144 -70.5q57 0 111.5 35t97.5 98q39 57 73 165.5t37 184.5q4 85 -51 141t-141 56q-84 0 -161 -61t-123 -163t-46 -214z" />
<glyph unicode="A" horiz-adv-x="1366" d="M35 0l532 1493h246l524 -1493h-213l-153 449h-576l-157 -449h-203zM442 608h476l-230 680z" />
<glyph unicode="B" horiz-adv-x="1366" d="M162 0v1493h606q208 0 324 -104q118 -106 118 -275q0 -231 -206 -326q143 -56 207.5 -141.5t64.5 -220.5q0 -180 -115 -301q-116 -125 -325 -125h-674zM352 168h465q126 0 197 68t71 188q0 121 -71 189.5t-197 68.5h-465v-514zM352 850h369q80 0 129.5 12t87.5 41 q82 63 82 184q0 122 -82 185q-38 29 -87.5 41t-129.5 12h-369v-475z" />
<glyph unicode="C" horiz-adv-x="1478" d="M98 729q0 181 54 336.5t155 265.5q169 187 473 187q246 0 389 -121t187 -367h-195q-17 84 -41.5 135.5t-66.5 89.5q-46 44 -125 69.5t-170 25.5q-218 0 -343.5 -166t-125.5 -453q0 -280 131 -445t354 -165q120 0 211 50t137 142q45 86 68 232h196q-67 -592 -614 -592 q-288 0 -459 174q-104 109 -159.5 263.5t-55.5 338.5z" />
<glyph unicode="D" horiz-adv-x="1478" d="M182 0v1493h576q284 0 446 -198.5t162 -546.5q0 -349 -162.5 -548.5t-445.5 -199.5h-576zM373 168h352q221 0 336 146.5t115 430.5q0 285 -115 432.5t-336 147.5h-352v-1157z" />
<glyph unicode="E" horiz-adv-x="1366" d="M184 0v1493h1035v-168h-844v-477h813v-168h-813v-512h880v-168h-1071z" />
<glyph unicode="F" horiz-adv-x="1251" d="M184 0v1493h1002v-168h-811v-477h712v-168h-712v-680h-191z" />
<glyph unicode="G" horiz-adv-x="1593" d="M90 731q0 202 70 369t200 274q175 144 447 144q257 0 421 -125.5t204 -352.5h-195q-31 145 -146.5 227.5t-285.5 82.5q-236 0 -380 -167t-144 -442q0 -139 42 -264.5t115 -204.5q66 -72 164.5 -111.5t212.5 -39.5q204 0 336.5 129.5t132.5 329.5v41h-455v167h623v-796 h-121l-47 198q-110 -122 -234 -179.5t-276 -57.5q-199 0 -355 98t-242.5 275.5t-86.5 404.5z" />
<glyph unicode="H" horiz-adv-x="1478" d="M170 0v1493h190v-645h768v645h191v-1493h-191v680h-768v-680h-190z" />
<glyph unicode="I" horiz-adv-x="569" d="M205 0v1493h192v-1493h-192z" />
<glyph unicode="J" horiz-adv-x="1024" d="M35 348v131h194v-96q0 -130 58.5 -200t165.5 -70q57 0 105.5 24.5t76.5 67.5q47 68 47 237v1051h190v-1120q0 -194 -113 -307t-308 -113q-192 0 -304 106.5t-112 288.5z" />
<glyph unicode="K" horiz-adv-x="1366" d="M162 0v1493h190v-756l744 756h245l-608 -608l615 -885h-226l-526 766l-244 -244v-522h-190z" />
<glyph unicode="L" d="M164 0v1493h190v-1325h738v-168h-928z" />
<glyph unicode="M" horiz-adv-x="1705" d="M154 0v1493h264l442 -1300l434 1300h265v-1493h-181v1251l-420 -1251h-200l-424 1251v-1251h-180z" />
<glyph unicode="N" horiz-adv-x="1478" d="M156 0v1493h206l781 -1221v1221h180v-1493h-215l-772 1210v-1210h-180z" />
<glyph unicode="O" horiz-adv-x="1593" d="M78 735q0 231 90 409t253.5 276t375.5 98q328 0 525.5 -217t197.5 -578q0 -184 -68.5 -347t-189.5 -265q-187 -158 -463 -158q-160 0 -294.5 56.5t-228.5 158t-146 247.5t-52 320zM268 735q0 -277 146 -445.5t385 -168.5q236 0 383 168t147 438q0 284 -144.5 453.5 t-387.5 169.5q-238 0 -383.5 -169t-145.5 -446z" />
<glyph unicode="P" horiz-adv-x="1366" d="M186 0v1493h617q221 0 341 -113.5t120 -324.5q0 -103 -31 -179t-98 -137q-118 -106 -289 -106h-469v-633h-191zM377 801h397q137 0 214 69.5t77 192.5t-77 192.5t-214 69.5h-397v-524z" />
<glyph unicode="Q" horiz-adv-x="1593" d="M78 735q0 232 89.5 410t253.5 275.5t378 97.5q213 0 377 -97.5t254 -274.5t90 -407q0 -350 -211 -583l192 -158l-96 -119l-215 178q-175 -104 -391 -104q-160 0 -294.5 57t-228.5 158.5t-146 247.5t-52 319zM268 735q0 -277 145.5 -445.5t383.5 -168.5q128 0 245 57 l-151 127l94 115l182 -150q162 182 162 467q0 275 -146 444t-384 169q-239 0 -385 -169t-146 -446z" />
<glyph unicode="R" horiz-adv-x="1478" d="M190 0v1493h689q221 0 337.5 -102.5t116.5 -296.5q0 -129 -54.5 -211.5t-180.5 -145.5q84 -36 125 -79.5t58.5 -113t18.5 -196.5q3 -150 20 -207t71 -94v-47h-232q-43 97 -43 244l2 133q0 138 -59 202t-187 64h-491v-643h-191zM381 811h461q152 0 222.5 62t70.5 196 q0 133 -78 199q-65 57 -215 57h-461v-514z" />
<glyph unicode="S" horiz-adv-x="1366" d="M98 475h181v-10q0 -127 77 -219q105 -125 344 -125q189 0 275 63q48 34 77 90.5t29 116.5q0 88 -66 146.5t-208 95.5l-371 98q-293 76 -293 348q0 203 142.5 321t388.5 118q189 0 317.5 -67t190.5 -196q25 -53 32 -88.5t7 -111.5h-181q-1 147 -97 225t-275 78 q-151 0 -242.5 -69t-91.5 -183q0 -86 55 -135t191 -86l374 -101q152 -41 235 -138.5t83 -235.5q0 -97 -44.5 -189.5t-119.5 -152.5q-149 -115 -420 -115q-348 0 -502 213q-45 62 -66 134.5t-22 174.5z" />
<glyph unicode="T" horiz-adv-x="1251" d="M43 1325v168h1171v-168h-489v-1325h-190v1325h-492z" />
<glyph unicode="U" horiz-adv-x="1478" d="M174 444v1049h191v-1049q0 -162 108 -245q110 -78 272 -78q180 0 282.5 86t102.5 237v1049h191v-1049q0 -224 -156.5 -357.5t-419.5 -133.5q-265 0 -418 131.5t-153 359.5z" />
<glyph unicode="V" horiz-adv-x="1366" d="M61 1493h205l439 -1264l413 1264h203l-518 -1493h-205z" />
<glyph unicode="W" horiz-adv-x="1933" d="M45 1493h213l281 -1212l331 1212h205l340 -1212l275 1212h213l-379 -1493h-209l-344 1227l-334 -1227h-209z" />
<glyph unicode="X" horiz-adv-x="1366" d="M45 0l528 766l-495 727h231l383 -586l385 586h228l-504 -727l528 -766h-235l-408 623l-410 -623h-231z" />
<glyph unicode="Y" horiz-adv-x="1366" d="M27 1493h235l438 -727l426 727h228l-561 -907v-586h-191v586z" />
<glyph unicode="Z" horiz-adv-x="1251" d="M57 0v168l897 1157h-839v168h1075v-172l-893 -1153h897v-168h-1137z" />
<glyph unicode="[" horiz-adv-x="569" d="M131 -434v1927h381v-147h-211v-1633h211v-147h-381z" />
<glyph unicode="\" horiz-adv-x="569" d="M-16 1493h112l486 -1534h-113z" />
<glyph unicode="]" horiz-adv-x="569" d="M47 -287h211v1633h-211v147h381v-1927h-381v147z" />
<glyph unicode="^" horiz-adv-x="960" d="M90 674l313 778h150l317 -778h-141l-250 614l-248 -614h-141z" />
<glyph unicode="_" d="M-45 -258h1229v-102h-1229v102z" />
<glyph unicode="`" horiz-adv-x="681" d="M45 1516h231l197 -304h-123z" />
<glyph unicode="a" d="M86 270q0 207 188 287q51 21 108.5 32t235.5 34q104 13 140.5 37.5t38.5 80.5v45q0 77 -62 118.5t-178 41.5q-120 0 -180.5 -46t-71.5 -144h-172q3 79 20 130.5t54 92.5q116 125 356 125q198 0 301 -75t103 -218v-631q0 -40 24 -62t68 -22q19 0 37 4v-129 q-73 -18 -117 -18q-83 0 -125 37.5t-51 120.5q-91 -83 -177.5 -120.5t-187.5 -37.5q-163 0 -257.5 85.5t-94.5 231.5zM264 274q0 -82 55.5 -127t155.5 -45q146 0 254 97q38 35 53 65.5t15 73.5v192q-42 -20 -89 -30t-186 -29q-138 -20 -198 -66t-60 -131z" />
<glyph unicode="b" d="M111 0v1493h170v-565q60 91 140.5 133.5t190.5 42.5q214 0 336.5 -151t122.5 -412q0 -267 -127.5 -427.5t-339.5 -160.5q-219 0 -340 184v-137h-153zM281 528q0 -189 81.5 -302t217.5 -113q140 0 226.5 113t86.5 296q0 192 -85.5 307t-227.5 115q-136 0 -217.5 -113.5 t-81.5 -302.5z" />
<glyph unicode="c" horiz-adv-x="1024" d="M63 518q0 267 130 426.5t348 159.5q112 0 204 -42t148 -118q61 -88 72 -231h-172q-15 112 -81 172.5t-173 60.5q-139 0 -218 -113.5t-79 -314.5q0 -191 80 -299t221 -108q219 0 262 258h172q-15 -197 -130.5 -306.5t-307.5 -109.5q-218 0 -347 153t-129 412z" />
<glyph unicode="d" d="M53 539q0 256 126 410.5t335 154.5q220 0 330 -166v555h170v-1493h-152v141q-69 -99 -150 -143.5t-192 -44.5q-218 0 -342.5 157t-124.5 429zM231 528q0 -187 86.5 -301t227.5 -114q135 0 217 112.5t82 298.5q0 193 -81.5 306.5t-219.5 113.5q-140 0 -226 -114.5 t-86 -301.5z" />
<glyph unicode="e" d="M82 522q0 266 133.5 424t357.5 158q151 0 266.5 -75.5t168.5 -207.5q43 -111 43 -342h-791q2 -81 14.5 -132.5t42.5 -96.5q43 -67 109.5 -103t148.5 -36q209 0 281 215h172q-32 -175 -153.5 -274t-305.5 -99q-227 0 -357 151.5t-130 417.5zM264 618h602 q0 145 -82.5 236.5t-212.5 91.5q-129 0 -213 -89.5t-94 -238.5z" />
<glyph unicode="f" horiz-adv-x="569" d="M37 934v139h143v182q0 115 66.5 179.5t185.5 64.5q47 0 96 -10v-141q-39 2 -59 2q-119 0 -119 -109v-168h178v-139h-178v-934h-170v934h-143z" />
<glyph unicode="g" d="M72 518q0 258 122.5 422t317.5 164q101 0 175.5 -44.5t139.5 -141.5v155h158v-897q0 -189 -25.5 -299.5t-87.5 -185.5q-53 -65 -146.5 -101t-211.5 -36q-175 0 -285.5 87t-122.5 236h175q12 -92 70 -136t167 -44q160 0 226.5 89t66.5 304v55q-68 -101 -141 -146.5 t-170 -45.5q-170 0 -293 145q-135 160 -135 420zM250 528q0 -198 73 -307.5t205 -109.5q134 0 208.5 108t74.5 303q0 204 -74 314t-209 110q-132 0 -205 -110.5t-73 -307.5z" />
<glyph unicode="h" d="M143 0v1493h170v-567q75 98 152.5 138t191.5 40q157 0 247.5 -79t90.5 -214v-811h-170v743q0 112 -69 164q-62 47 -152 47q-132 0 -211.5 -99t-79.5 -263v-592h-170z" />
<glyph unicode="i" horiz-adv-x="454" d="M135 1278v215h172v-215h-172zM137 0v1073h170v-1073h-170z" />
<glyph unicode="j" horiz-adv-x="454" d="M-37 -295q23 -2 41 -2q79 0 109 30.5t30 110.5v1229h170v-1296q0 -110 -74 -166.5t-219 -56.5q-27 0 -57 6v145zM143 1278v215h170v-215h-170z" />
<glyph unicode="k" horiz-adv-x="1024" d="M119 0v1493h170v-875l454 455h220l-373 -371l438 -702h-211l-362 582l-166 -164v-418h-170z" />
<glyph unicode="l" horiz-adv-x="454" d="M139 0v1493h172v-1493h-172z" />
<glyph unicode="m" horiz-adv-x="1705" d="M143 0v1073h158v-151q67 97 145 139.5t185 42.5q104 0 173 -39t116 -125q75 91 148.5 127.5t180.5 36.5q151 0 231.5 -77t80.5 -222v-805h-172v739q0 101 -52.5 158t-146.5 57q-104 0 -178 -81.5t-74 -198.5v-674h-172v739q0 103 -52 159t-147 56q-104 0 -178 -81.5 t-74 -198.5v-674h-172z" />
<glyph unicode="n" d="M143 0v1073h158v-180q71 113 153.5 162t202.5 49q155 0 247.5 -79.5t92.5 -213.5v-811h-170v743q0 97 -60 154t-161 57q-132 0 -211.5 -99t-79.5 -263v-592h-172z" />
<glyph unicode="o" d="M74 528q0 270 128 423t355 153q233 0 360 -152t127 -432q0 -264 -129 -415.5t-356 -151.5q-229 0 -357 152t-128 423zM252 528q0 -195 82 -306t225 -111q141 0 224 110.5t83 300.5q0 200 -81 312t-226 112q-143 0 -225 -111.5t-82 -306.5z" />
<glyph unicode="p" d="M111 -446v1519h157v-162q122 193 342 193q213 0 337 -158t124 -428q0 -257 -125 -411t-334 -154q-104 0 -182.5 38.5t-146.5 121.5v-559h-172zM283 528q0 -189 81.5 -302t217.5 -113q139 0 225 113t86 296q0 192 -85 307t-226 115q-136 0 -217.5 -113.5t-81.5 -302.5z " />
<glyph unicode="q" d="M53 516q0 267 127.5 427.5t339.5 160.5q106 0 194 -44.5t148 -129.5v143h152v-1519h-170v569q-60 -88 -140 -129t-192 -41q-214 0 -336.5 151t-122.5 412zM231 528q0 -187 86.5 -301t227.5 -114q135 0 217 112t82 297q0 194 -81 308t-218 114q-141 0 -227.5 -114.5 t-86.5 -301.5z" />
<glyph unicode="r" horiz-adv-x="681" d="M141 0v1073h158v-194q74 120 142 172.5t151 52.5q22 0 65 -6v-174h-15q-164 0 -244 -84q-82 -88 -85 -283v-557h-172z" />
<glyph unicode="s" horiz-adv-x="1024" d="M70 319h180q7 -56 17.5 -84.5t31.5 -52.5q68 -71 213 -71q112 0 181 46.5t69 123.5q0 57 -38.5 91t-127.5 56l-160 39q-190 46 -265 114.5t-75 194.5q0 149 112.5 238.5t299.5 89.5q186 0 286.5 -86t102.5 -244h-180q-3 85 -57.5 128.5t-157.5 43.5q-105 0 -166.5 -43.5 t-61.5 -118.5q0 -57 47 -92.5t152 -60.5l164 -39q160 -38 231.5 -108.5t71.5 -190.5q0 -155 -120 -247.5t-322 -92.5q-211 0 -316.5 90t-111.5 276z" />
<glyph unicode="t" horiz-adv-x="569" d="M29 934v139h145v295h170v-295h176v-139h-176v-735q0 -57 19.5 -77t74.5 -20q44 0 82 9v-144q-80 -14 -139 -14q-100 0 -153.5 43.5t-53.5 126.5v811h-145z" />
<glyph unicode="u" d="M133 246v827h170v-760q0 -97 60 -154t161 -57q133 0 213 99t80 264v608h170v-1073h-153v150q-75 -106 -158 -151.5t-201 -45.5q-157 0 -249.5 79.5t-92.5 213.5z" />
<glyph unicode="v" horiz-adv-x="1024" d="M20 1073h193l287 -870l303 870h192l-411 -1073h-187z" />
<glyph unicode="w" horiz-adv-x="1478" d="M12 1073h189l219 -835l205 835h209l210 -835l213 835h193l-315 -1073h-195l-217 842l-207 -842h-192z" />
<glyph unicode="x" horiz-adv-x="1024" d="M35 0l379 547l-359 526h195l258 -389l258 389h192l-360 -518l371 -555h-199l-268 412l-273 -412h-194z" />
<glyph unicode="y" horiz-adv-x="1024" d="M41 1073h182l275 -835l297 835h184l-477 -1298q-25 -64 -51 -102.5t-66 -67.5q-70 -51 -160 -51q-63 0 -114 26v154q60 -13 90 -13q54 0 84.5 24t52.5 81l65 170z" />
<glyph unicode="z" horiz-adv-x="1024" d="M63 0v154l642 770h-599v149h801v-151l-637 -772h666v-150h-873z" />
<glyph unicode="{" horiz-adv-x="684" d="M88 459v141q89 17 125.5 81.5t34.5 201.5v340q-3 124 57 196t166 74h94v-133h-30q-76 -1 -102.5 -29t-26.5 -108v-371q0 -138 -39.5 -214t-128.5 -108q165 -65 168 -323v-371q0 -80 26.5 -108t102.5 -29h30v-133h-94q-106 2 -166 74t-57 196v340q2 137 -34.5 201.5 t-125.5 81.5z" />
<glyph unicode="|" horiz-adv-x="532" d="M205 -434v1927h123v-1927h-123z" />
<glyph unicode="}" horiz-adv-x="684" d="M59 -301h33q78 1 104.5 29t26.5 108v371q3 259 168 321q-165 65 -168 324v371q0 79 -27 107t-104 30h-33v133h97q107 -2 167.5 -74t57.5 -196v-340q-1 -136 34.5 -201t121.5 -82v-141q-86 -17 -121.5 -82t-34.5 -201v-340q3 -124 -57.5 -196t-167.5 -74h-97v133z" />
<glyph unicode="~" horiz-adv-x="1196" d="M154 600q7 146 64 221.5t157 75.5q60 0 110 -33l240 -141q57 -35 102 -35q57 0 81.5 36t23.5 118h108v-33q0 -120 -57.5 -190t-157.5 -70q-81 0 -166 53l-200 129q-16 9 -45 19t-43 10q-60 0 -92 -72q-12 -30 -17 -88h-108z" />
<glyph unicode="&#xa1;" horiz-adv-x="681" d="M248 860v213h172v-213h-172zM250 272l45 457h80l45 -457v-692h-170v692z" />
<glyph unicode="&#xa2;" d="M106 518q0 250 120 406t327 178v184h86v-182q180 -12 282 -114t111 -277h-172q-10 103 -68.5 164t-152.5 69v-837q196 21 233 260h172q-11 -185 -119 -296t-286 -120v-199h-86v201q-208 19 -327.5 169t-119.5 394zM285 518q0 -173 70 -279t198 -126v831 q-132 -25 -200 -132.5t-68 -293.5z" />
<glyph unicode="&#xa3;" d="M53 657v113h166q-70 116 -89 166.5t-19 118.5q0 122 64 222.5t176 158t247 57.5q130 0 233.5 -53.5t159.5 -149.5q55 -96 58 -272h-181q-9 315 -278 315q-130 0 -209.5 -71.5t-79.5 -188.5q0 -86 45 -166l43 -80q16 -23 33 -57h328v-113h-279q31 -91 31 -145 q0 -80 -52.5 -164t-189.5 -223q121 80 250 80q69 0 168 -31q114 -33 162 -33q81 0 170 62l86 -135q-62 -60 -126 -87.5t-143 -27.5q-57 0 -114 14t-185 58q-68 22 -135 22q-104 0 -223 -76l-98 135q141 122 198.5 209.5t57.5 182.5q0 80 -49 159h-226z" />
<glyph unicode="&#xa4;" d="M137 1020l115 108l113 -112q89 53 198 53q119 0 201 -57l121 108l116 -119l-112 -112q53 -85 53 -191q0 -107 -59 -198l110 -111l-119 -110l-108 108q-82 -61 -205 -61q-110 0 -192 51l-105 -105l-114 117l98 100q-66 89 -66 209q0 114 66 209zM344 696q0 -88 64 -150.5 t155 -62.5q89 0 153 62.5t64 148.5q0 91 -63.5 154t-155.5 63q-89 0 -153 -63t-64 -152z" />
<glyph unicode="&#xa5;" d="M23 1452h174l378 -659l367 659h174l-411 -727h309v-104h-348v-158h348v-105h-348v-358h-181v358h-352v105h352v158h-352v104h309z" />
<glyph unicode="&#xa6;" horiz-adv-x="532" d="M205 387h123v-821h-123v821zM205 672v821h123v-821h-123z" />
<glyph unicode="&#xa7;" d="M90 639q0 103 50.5 175t164.5 132q-48 55 -69 103t-21 106q0 141 109.5 239.5t267.5 98.5q161 0 259.5 -100t98.5 -263v-40v-17h-170v19v34q0 95 -53.5 152t-144.5 57q-78 0 -130.5 -49.5t-52.5 -124.5q0 -44 26 -79t91 -78l299 -193q122 -78 171.5 -155t49.5 -187 q0 -236 -221 -319q60 -69 83.5 -122.5t23.5 -119.5q0 -149 -108.5 -246.5t-272.5 -97.5q-129 0 -224 61t-135 170q-22 62 -22 146v30h174q0 -61 7.5 -95.5t27.5 -63.5q63 -91 174 -91q86 0 140 49.5t54 127.5q0 103 -110 180l-348 239q-100 69 -144.5 145t-44.5 177z M252 672q0 -62 27 -102.5t108 -100.5l340 -252q71 38 109 93t38 118q0 126 -149 227l-328 224q-80 -53 -112.5 -99.5t-32.5 -107.5z" />
<glyph unicode="&#xa8;" horiz-adv-x="681" d="M61 1253v211h213v-211h-213zM393 1253v211h213v-211h-213z" />
<glyph unicode="&#xa9;" horiz-adv-x="1509" d="M-27 737q0 212 105 392.5t285.5 285.5t392.5 105q159 0 304 -62t249.5 -166.5t166.5 -249.5t62 -303q0 -162 -62 -307t-167.5 -249.5t-252.5 -166t-311 -61.5q-155 0 -297.5 63t-246.5 168t-166 249.5t-62 301.5zM113 737q0 -175 86 -326t232.5 -240t316.5 -89 q135 0 255.5 51.5t207 139t137.5 209.5t51 257q0 177 -86.5 327.5t-234.5 238.5t-322 88t-322 -88t-234.5 -239t-86.5 -329zM371 731q0 217 110.5 349t292.5 132q137 0 220 -77.5t120 -239.5h-145q-26 102 -72.5 146t-128.5 44q-117 0 -186.5 -95.5t-69.5 -256.5t74 -254 q32 -43 82 -68.5t100 -25.5q86 0 141.5 64.5t75.5 189.5h145q-19 -94 -36.5 -145t-46.5 -93q-101 -143 -279 -143q-177 0 -287 131t-110 342z" />
<glyph unicode="&#xaa;" horiz-adv-x="757" d="M76 1014q0 127 117 178q69 28 204 37q59 5 78.5 17.5t22.5 49.5v27q0 90 -138 90q-69 0 -99 -24.5t-40 -90.5h-121q3 109 71 165.5t194 56.5q249 0 249 -193v-366q0 -48 48 -48q6 0 20 7v-91q-32 -12 -66 -12q-51 0 -77 20.5t-35 67.5q-101 -88 -215 -88q-98 0 -155.5 53 t-57.5 144zM88 621v104h567v-104h-567zM195 1020q0 -46 30.5 -71t85.5 -25q75 0 131 40t56 95v104q-33 -14 -156 -33q-80 -11 -113.5 -36t-33.5 -74z" />
<glyph unicode="&#xab;" d="M201 465v182l311 250v-170l-217 -170l217 -170v-170zM621 465v182l311 250v-170l-217 -170l217 -170v-170z" />
<glyph unicode="&#xac;" horiz-adv-x="1196" d="M82 625v143h1032v-592h-143v449h-889z" />
<glyph unicode="&#xad;" horiz-adv-x="681" d="M94 492v147h488v-147h-488z" />
<glyph unicode="&#xae;" horiz-adv-x="1509" d="M-27 737q0 212 105 392.5t285.5 285.5t392.5 105q159 0 304 -62t249.5 -166.5t166.5 -249.5t62 -303q0 -162 -62 -307t-167.5 -249.5t-252.5 -166t-311 -61.5q-155 0 -297.5 63t-246.5 168t-166 249.5t-62 301.5zM113 737q0 -175 86 -326t232.5 -240t316.5 -89 q135 0 255.5 51.5t207 139t137.5 209.5t51 257q0 177 -86.5 327.5t-234.5 238.5t-322 88t-322 -88t-234.5 -239t-86.5 -329zM414 287v911h422q146 0 217 -63.5t71 -194.5q0 -71 -23 -114.5t-87 -88.5q57 -37 73.5 -78.5t18.5 -150.5q1 -88 10 -118.5t37 -51.5v-51h-162 q-30 72 -30 157l2 82q0 73 -31.5 106.5t-100.5 33.5h-274v-379h-143zM557 795h264q80 0 117 32.5t37 104.5t-36 104.5t-118 32.5h-264v-274z" />
<glyph unicode="&#xaf;" horiz-adv-x="681" d="M57 1292v144h561v-144h-561z" />
<glyph unicode="&#xb0;" horiz-adv-x="819" d="M98 1096q0 128 91.5 218.5t220.5 90.5q128 0 218.5 -90.5t90.5 -218.5q0 -130 -91 -221t-222 -91q-126 0 -217 92t-91 220zM215 1096q0 -79 57 -137t134 -58q83 0 139.5 56.5t56.5 138.5q0 80 -56 136t-136 56q-82 0 -138.5 -56t-56.5 -136z" />
<glyph unicode="&#xb1;" horiz-adv-x="1196" d="M102 -23v144h992v-144h-992zM102 709v143h424v424h144v-424h424v-143h-424v-424h-144v424h-424z" />
<glyph unicode="&#xb2;" horiz-adv-x="681" d="M20 582q6 149 59.5 227t201.5 156l118 63q121 65 121 162q0 66 -49.5 109.5t-124.5 43.5q-49 0 -89 -21t-62 -58q-21 -36 -27 -123h-127q4 158 80.5 234.5t228.5 76.5q132 0 215.5 -72t83.5 -186q0 -164 -196 -264l-129 -66q-67 -36 -99 -71t-51 -93h469v-118h-623z" />
<glyph unicode="&#xb3;" horiz-adv-x="681" d="M14 844h127q4 -95 49 -138.5t138 -43.5q88 0 136 43.5t48 121.5q0 148 -188 148h-48h-18v104q131 0 178 26.5t47 98.5q0 66 -40.5 102.5t-114.5 36.5q-51 0 -90 -18.5t-58 -52.5q-18 -35 -18 -111h-129q6 291 295 291q132 0 208 -65.5t76 -180.5q0 -121 -116 -174 q145 -49 145 -205q0 -125 -86 -199.5t-231 -74.5q-148 0 -229 76t-81 215z" />
<glyph unicode="&#xb4;" horiz-adv-x="681" d="M188 1212l197 304h231l-305 -304h-123z" />
<glyph unicode="&#xb5;" d="M133 -451v1524h170v-760q0 -97 59.5 -154t159.5 -57q133 0 213 99t80 264v608h170v-893q0 -84 92 -84q17 0 37 4v-129q-68 -18 -117 -18q-88 0 -130.5 41t-45.5 129q-123 -170 -334 -170q-111 0 -184 53v-457h-170z" />
<glyph unicode="&#xb6;" horiz-adv-x="1099" d="M98 1001q0 207 133 349.5t326 142.5h512v-131h-117v-1724h-131v1724h-168v-1724h-131v892q-84 4 -143 25t-113 66q-80 66 -124 166t-44 214z" />
<glyph unicode="&#xb7;" horiz-adv-x="569" d="M178 618v256h254v-256h-254z" />
<glyph unicode="&#xb8;" horiz-adv-x="681" d="M80 -369l43 82l18 -8q69 -35 106 -47t77 -12q47 0 78.5 26t31.5 66q0 35 -25 55.5t-69 20.5q-29 0 -64 -17l-24 15l86 188h78l-47 -115q27 4 55 4q78 0 121 -35.5t43 -101.5q0 -89 -67.5 -139.5t-184.5 -50.5q-61 0 -111.5 13.5t-144.5 55.5z" />
<glyph unicode="&#xb9;" horiz-adv-x="681" d="M106 1188v94l31 2q110 11 147.5 40.5t63.5 127.5h88v-870h-127v606h-203z" />
<glyph unicode="&#xba;" horiz-adv-x="747" d="M82 1167q0 169 76 261t215 92q141 0 216 -92t75 -265q0 -164 -76.5 -255t-214.5 -91q-139 0 -215 91.5t-76 258.5zM104 621v104h539v-104h-539zM201 1169q0 -115 46 -180t126 -65t126 64.5t46 176.5q0 117 -45 182.5t-127 65.5q-80 0 -126 -65t-46 -179z" />
<glyph unicode="&#xbb;" d="M201 217v170l221 170l-221 170v170l315 -248v-182zM608 217v170l221 170l-221 170v170l316 -248v-182z" />
<glyph unicode="&#xbc;" horiz-adv-x="1708" d="M53 1188v94l31 2q110 11 147.5 40.5t63.5 127.5h88v-870h-127v606h-203zM319 -41l926 1493h119l-926 -1493h-119zM1018 205v121l418 544h94v-557h137v-108h-137v-205h-127v205h-385zM1139 313h264v349z" />
<glyph unicode="&#xbd;" horiz-adv-x="1708" d="M51 1188v94l31 2q110 11 147.5 40.5t63.5 127.5h88v-870h-127v606h-203zM268 -41l926 1493h119l-926 -1493h-119zM1026 0q8 150 60.5 227.5t199.5 155.5l119 63q121 65 121 162q0 66 -49.5 110t-124.5 44q-49 0 -89.5 -21.5t-62.5 -58.5q-20 -34 -26 -123h-127 q4 158 80.5 234.5t228.5 76.5q132 0 215.5 -72t83.5 -186q0 -163 -197 -264l-129 -65q-66 -35 -98 -70.5t-51 -93.5h469v-119h-623z" />
<glyph unicode="&#xbe;" horiz-adv-x="1708" d="M51 844h127q4 -95 49 -138.5t138 -43.5q88 0 136 43.5t48 121.5q0 148 -189 148h-47h-18v104q131 0 178 26.5t47 98.5q0 66 -40.5 102.5t-114.5 36.5q-51 0 -90 -18.5t-58 -52.5q-18 -35 -18 -111h-129q6 291 295 291q132 0 208 -65.5t76 -180.5q0 -120 -117 -174 q146 -49 146 -205q0 -125 -86.5 -199.5t-231.5 -74.5q-148 0 -228.5 76t-80.5 215zM377 -41l926 1493h118l-925 -1493h-119zM1014 205v121l418 544h94v-557h137v-108h-137v-205h-127v205h-385zM1135 313h264v349z" />
<glyph unicode="&#xbf;" horiz-adv-x="1251" d="M195 -51q0 103 44.5 182.5t159.5 183.5q100 88 131 136.5t33 117.5v97h185v-113q0 -90 -41.5 -154t-174.5 -180q-81 -72 -117 -135.5t-36 -134.5q0 -105 72.5 -169.5t191.5 -64.5q138 0 201 77t63 243h174q0 -238 -112.5 -358.5t-335.5 -120.5q-201 0 -319.5 106.5 t-118.5 286.5zM563 860v213h185v-213h-185z" />
<glyph unicode="&#xc0;" horiz-adv-x="1366" d="M35 0l532 1493h246l524 -1493h-213l-153 449h-576l-157 -449h-203zM391 1923h230l198 -303h-125zM442 608h476l-230 680z" />
<glyph unicode="&#xc1;" horiz-adv-x="1366" d="M35 0l532 1493h246l524 -1493h-213l-153 449h-576l-157 -449h-203zM442 608h476l-230 680zM561 1620l197 303h231l-305 -303h-123z" />
<glyph unicode="&#xc2;" horiz-adv-x="1366" d="M35 0l532 1493h246l524 -1493h-213l-153 449h-576l-157 -449h-203zM393 1618l197 307h192l199 -307h-131l-164 197l-162 -197h-131zM442 608h476l-230 680z" />
<glyph unicode="&#xc3;" horiz-adv-x="1366" d="M35 0l532 1493h246l524 -1493h-213l-153 449h-576l-157 -449h-203zM365 1665q17 101 63 156t113 55q32 0 55 -6.5t88 -32.5q89 -35 129 -35q53 0 76 74h119q-30 -213 -183 -213q-30 0 -58 8t-116 41q-69 27 -100 27q-49 0 -68 -74h-118zM442 608h476l-230 680z" />
<glyph unicode="&#xc4;" horiz-adv-x="1366" d="M35 0l532 1493h246l524 -1493h-213l-153 449h-576l-157 -449h-203zM414 1661v211h213v-211h-213zM442 608h476l-230 680zM745 1661v211h213v-211h-213z" />
<glyph unicode="&#xc5;" horiz-adv-x="1366" d="M35 0l532 1493h246l524 -1493h-213l-153 449h-576l-157 -449h-203zM442 608h476l-230 680zM506 1774q0 73 53 125.5t127 52.5q75 0 127.5 -52.5t52.5 -127.5q0 -73 -53 -126t-127 -53q-75 0 -127.5 53t-52.5 128zM596 1772q0 -36 27 -62.5t63 -26.5t63 26.5t27 62.5 q0 38 -26 64t-64 26q-37 0 -63.5 -26.5t-26.5 -63.5z" />
<glyph unicode="&#xc6;" horiz-adv-x="2048" d="M23 0l612 1493h1274v-168h-760v-477h721v-168h-721v-512h797v-168h-988v438h-550l-175 -438h-210zM471 606h487v719h-204z" />
<glyph unicode="&#xc7;" horiz-adv-x="1478" d="M98 729q0 181 54 336.5t155 265.5q169 187 473 187q246 0 389 -121t187 -367h-195q-17 84 -41.5 135.5t-66.5 89.5q-46 44 -124.5 69.5t-168.5 25.5q-218 0 -344.5 -166t-126.5 -453q0 -281 131 -446.5t354 -165.5q120 0 211 50t137 142q45 89 68 234h196 q-34 -294 -187 -443t-423 -149l-26 -68q27 4 55 4q78 0 121 -35.5t43 -101.5q0 -88 -67.5 -139t-184.5 -51q-61 0 -111.5 13.5t-144.5 55.5l43 82l18 -8q69 -36 105.5 -47.5t77.5 -11.5q47 0 78.5 26t31.5 66q0 35 -25 55.5t-69 20.5q-29 0 -64 -17l-22 15l63 141 q-116 17 -177.5 38.5t-127.5 67.5q-139 98 -217 275t-78 395z" />
<glyph unicode="&#xc8;" horiz-adv-x="1366" d="M184 0v1493h1035v-168h-844v-477h813v-168h-813v-512h880v-168h-1071zM424 1923h231l197 -303h-123z" />
<glyph unicode="&#xc9;" horiz-adv-x="1366" d="M184 0v1493h1035v-168h-844v-477h813v-168h-813v-512h880v-168h-1071zM553 1620l199 303h229l-305 -303h-123z" />
<glyph unicode="&#xca;" horiz-adv-x="1366" d="M184 0v1493h1035v-168h-844v-477h813v-168h-813v-512h880v-168h-1071zM412 1618l196 307h195l196 -307h-129l-163 197l-162 -197h-133z" />
<glyph unicode="&#xcb;" horiz-adv-x="1366" d="M184 0v1493h1035v-168h-844v-477h813v-168h-813v-512h880v-168h-1071zM432 1661v211h213v-211h-213zM764 1661v211h213v-211h-213z" />
<glyph unicode="&#xcc;" horiz-adv-x="569" d="M2 1923h231l197 -303h-123zM205 0v1493h190v-1493h-190z" />
<glyph unicode="&#xcd;" horiz-adv-x="569" d="M145 1620l197 303h231l-305 -303h-123zM205 0v1493h190v-1493h-190z" />
<glyph unicode="&#xce;" horiz-adv-x="569" d="M-2 1618l197 307h194l197 -307h-129l-166 197l-162 -197h-131zM205 0v1493h190v-1493h-190z" />
<glyph unicode="&#xcf;" horiz-adv-x="569" d="M18 1647v211h213v-211h-213zM205 0v1493h190v-1493h-190zM350 1647v211h213v-211h-213z" />
<glyph unicode="&#xd0;" horiz-adv-x="1478" d="M41 694v137h141v662h578q283 0 444.5 -199t161.5 -546q0 -349 -161.5 -548.5t-444.5 -199.5h-578v694h-141zM373 168h354q220 0 334.5 147.5t114.5 432.5q0 283 -113 428q-116 149 -336 149h-354v-494h350v-137h-350v-526z" />
<glyph unicode="&#xd1;" horiz-adv-x="1478" d="M156 0v1493h206l781 -1221v1221h180v-1493h-217l-770 1210v-1210h-180zM432 1665q17 101 63 156t113 55q31 0 55.5 -6.5t88.5 -32.5q86 -35 129 -35q52 0 75 74h119q-30 -213 -184 -213q-29 0 -56 7.5t-118 41.5q-66 27 -101 27q-45 0 -67 -74h-117z" />
<glyph unicode="&#xd2;" horiz-adv-x="1593" d="M78 735q0 231 90 409t253.5 276t375.5 98q328 0 525.5 -217t197.5 -578q0 -184 -68.5 -347t-189.5 -265q-187 -158 -463 -158q-160 0 -294.5 56.5t-228.5 158t-146 247.5t-52 320zM268 735q0 -277 146 -445.5t385 -168.5q236 0 383 168t147 438q0 284 -144.5 453.5 t-387.5 169.5q-238 0 -383.5 -169t-145.5 -446zM504 1923h229l199 -303h-125z" />
<glyph unicode="&#xd3;" horiz-adv-x="1593" d="M78 735q0 231 90 409t253.5 276t375.5 98q328 0 525.5 -217t197.5 -578q0 -184 -68.5 -347t-189.5 -265q-187 -158 -463 -158q-160 0 -294.5 56.5t-228.5 158t-146 247.5t-52 320zM268 735q0 -277 146 -445.5t385 -168.5q236 0 383 168t147 438q0 284 -144.5 453.5 t-387.5 169.5q-238 0 -383.5 -169t-145.5 -446zM659 1620l199 303h229l-305 -303h-123z" />
<glyph unicode="&#xd4;" horiz-adv-x="1593" d="M78 735q0 231 90 409t253.5 276t375.5 98q328 0 525.5 -217t197.5 -578q0 -184 -68.5 -347t-189.5 -265q-187 -158 -463 -158q-160 0 -294.5 56.5t-228.5 158t-146 247.5t-52 320zM268 735q0 -277 146 -445.5t385 -168.5q236 0 383 168t147 438q0 284 -144.5 453.5 t-387.5 169.5q-238 0 -383.5 -169t-145.5 -446zM506 1618l196 307h193l199 -307h-131l-164 197l-162 -197h-131z" />
<glyph unicode="&#xd5;" horiz-adv-x="1593" d="M78 735q0 231 90 409t253.5 276t375.5 98q328 0 525.5 -217t197.5 -578q0 -184 -68.5 -347t-189.5 -265q-187 -158 -463 -158q-160 0 -294.5 56.5t-228.5 158t-146 247.5t-52 320zM268 735q0 -277 146 -445.5t385 -168.5q236 0 383 168t147 438q0 284 -144.5 453.5 t-387.5 169.5q-238 0 -383.5 -169t-145.5 -446zM483 1665q17 101 63 156t113 55q33 0 57.5 -6.5t86.5 -32.5q89 -35 129 -35q55 0 78 74h116q-13 -105 -60 -159t-122 -54q-29 0 -56 7.5t-118 41.5q-66 27 -100 27q-49 0 -68 -74h-119z" />
<glyph unicode="&#xd6;" horiz-adv-x="1593" d="M78 735q0 231 90 409t253.5 276t375.5 98q328 0 525.5 -217t197.5 -578q0 -184 -68.5 -347t-189.5 -265q-187 -158 -463 -158q-160 0 -294.5 56.5t-228.5 158t-146 247.5t-52 320zM268 735q0 -277 146 -445.5t385 -168.5q236 0 383 168t147 438q0 284 -144.5 453.5 t-387.5 169.5q-238 0 -383.5 -169t-145.5 -446zM526 1661v211h213v-211h-213zM858 1661v211h213v-211h-213z" />
<glyph unicode="&#xd7;" horiz-adv-x="1196" d="M195 172l301 301l-299 299l100 100l299 -297l301 299l100 -102l-299 -299l301 -301l-102 -102l-301 301l-299 -299z" />
<glyph unicode="&#xd8;" horiz-adv-x="1593" d="M61 39l166 182q-155 213 -155 516q0 231 90 408.5t254 275t377 97.5q281 0 471 -166l178 194l82 -73l-183 -199q83 -104 127.5 -243.5t44.5 -297.5q0 -231 -90 -408.5t-253.5 -274.5t-376.5 -97q-295 0 -494 184l-158 -172zM262 737q0 -214 94 -377l787 859 q-146 131 -350 131q-238 0 -384.5 -169t-146.5 -444zM422 272q151 -151 371 -151q238 0 384 168.5t146 443.5q0 234 -109 402z" />
<glyph unicode="&#xd9;" horiz-adv-x="1478" d="M174 444v1049h191v-1049q0 -151 102 -237t281 -86q178 0 280 86t102 237v1049h191v-1049q0 -224 -156 -357.5t-417 -133.5t-417.5 133.5t-156.5 357.5zM453 1923h229l199 -303h-125z" />
<glyph unicode="&#xda;" horiz-adv-x="1478" d="M174 444v1049h191v-1049q0 -151 102 -237t281 -86q178 0 280 86t102 237l-2 1049h191l2 -1049q0 -223 -156 -357t-417 -134t-417.5 133.5t-156.5 357.5zM596 1620l197 303h231l-305 -303h-123z" />
<glyph unicode="&#xdb;" horiz-adv-x="1478" d="M174 444v1049h191v-1049q0 -151 102 -237t281 -86q178 0 280 86t102 237v1049h191v-1049q0 -224 -156 -357.5t-417 -133.5t-417.5 133.5t-156.5 357.5zM455 1618l196 307h193l198 -307h-131l-163 197l-162 -197h-131z" />
<glyph unicode="&#xdc;" horiz-adv-x="1478" d="M174 444v1049h191v-1049q0 -151 102 -237t281 -86q178 0 280 86t102 237v1049h191v-1049q0 -224 -156 -357.5t-417 -133.5t-417.5 133.5t-156.5 357.5zM475 1661v211h213v-211h-213zM807 1661v211h213v-211h-213z" />
<glyph unicode="&#xdd;" horiz-adv-x="1366" d="M27 1493h235l436 -727l426 727h228l-561 -907v-586h-191v586zM551 1620l197 303h231l-305 -303h-123z" />
<glyph unicode="&#xde;" horiz-adv-x="1366" d="M186 0v1493h191v-246h426q214 0 336.5 -116t122.5 -318q0 -187 -116.5 -306.5t-299.5 -119.5h-469v-387h-191zM377 555h397q134 0 208.5 69t74.5 193q0 123 -75 192.5t-208 69.5h-397v-524z" />
<glyph unicode="&#xdf;" horiz-adv-x="1251" d="M143 0v1102q0 98 27.5 163t89.5 115q148 113 358 113q200 0 323.5 -104t123.5 -273q0 -109 -62 -180.5t-194 -114.5q82 -26 129.5 -49.5t87.5 -60.5q59 -54 85 -116.5t26 -148.5q0 -224 -137.5 -355.5t-370.5 -131.5q-50 0 -99 8v160h19h65q153 0 248.5 85.5t95.5 223.5 q0 92 -41.5 157.5t-119.5 94.5q-69 27 -209 27h-33v168h20q137 0 224.5 63.5t87.5 163.5q0 98 -79 160.5t-204 62.5q-132 0 -211.5 -62.5t-79.5 -168.5v-1102h-170z" />
<glyph unicode="&#xe0;" d="M86 270q0 207 188 287q51 21 108.5 32t235.5 34q104 13 140.5 37.5t38.5 80.5v45q0 77 -62 118.5t-178 41.5q-120 0 -180.5 -46t-71.5 -144h-172q3 79 20 130.5t54 92.5q116 125 356 125q198 0 301 -75t103 -218v-631q0 -40 24 -62t68 -22q19 0 37 4v-129 q-73 -18 -117 -18q-83 0 -125 37.5t-51 120.5q-91 -83 -177.5 -120.5t-187.5 -37.5q-163 0 -257.5 85.5t-94.5 231.5zM264 274q0 -82 55.5 -127t155.5 -45q146 0 254 97q38 35 53 65.5t15 73.5v192q-42 -20 -89 -30t-186 -29q-138 -20 -198 -66t-60 -131zM281 1516h231 l197 -304h-123z" />
<glyph unicode="&#xe1;" d="M86 270q0 207 188 287q51 21 108.5 32t235.5 34q104 13 140.5 37.5t38.5 80.5v45q0 77 -62 118.5t-178 41.5q-120 0 -180.5 -46t-71.5 -144h-172q3 79 20 130.5t54 92.5q116 125 356 125q198 0 301 -75t103 -218v-631q0 -40 24 -62t68 -22q19 0 37 4v-129 q-73 -18 -117 -18q-83 0 -125 37.5t-51 120.5q-91 -83 -177.5 -120.5t-187.5 -37.5q-163 0 -257.5 85.5t-94.5 231.5zM264 274q0 -82 55.5 -127t155.5 -45q146 0 254 97q38 35 53 65.5t15 73.5v192q-42 -20 -89 -30t-186 -29q-138 -20 -198 -66t-60 -131zM424 1212l199 304 h229l-305 -304h-123z" />
<glyph unicode="&#xe2;" d="M86 270q0 207 188 287q51 21 108.5 32t235.5 34q104 13 140.5 37.5t38.5 80.5v45q0 77 -62 118.5t-178 41.5q-120 0 -180.5 -46t-71.5 -144h-172q3 79 20 130.5t54 92.5q116 125 356 125q198 0 301 -75t103 -218v-631q0 -40 24 -62t68 -22q19 0 37 4v-129 q-73 -18 -117 -18q-83 0 -125 37.5t-51 120.5q-91 -83 -177.5 -120.5t-187.5 -37.5q-163 0 -257.5 85.5t-94.5 231.5zM264 274q0 -82 55.5 -127t155.5 -45q146 0 254 97q38 35 53 65.5t15 73.5v192q-42 -20 -89 -30t-186 -29q-138 -20 -198 -66t-60 -131zM270 1210l197 308 h192l199 -308h-131l-164 197l-162 -197h-131z" />
<glyph unicode="&#xe3;" d="M86 270q0 207 188 287q51 21 108.5 32t235.5 34q104 13 140.5 37.5t38.5 80.5v45q0 77 -62 118.5t-178 41.5q-120 0 -180.5 -46t-71.5 -144h-172q3 79 20 130.5t54 92.5q116 125 356 125q198 0 301 -75t103 -218v-631q0 -40 24 -62t68 -22q19 0 37 4v-129 q-73 -18 -117 -18q-83 0 -125 37.5t-51 120.5q-91 -83 -177.5 -120.5t-187.5 -37.5q-163 0 -257.5 85.5t-94.5 231.5zM242 1257q17 101 63 156t113 55q33 0 56.5 -6t86.5 -32q89 -35 129 -35q55 0 78 73h117q-30 -213 -183 -213q-29 0 -56.5 8t-117.5 42q-64 26 -100 26 q-49 0 -68 -74h-118zM264 274q0 -82 55.5 -127t155.5 -45q146 0 254 97q38 35 53 65.5t15 73.5v192q-42 -20 -89 -30t-186 -29q-138 -20 -198 -66t-60 -131z" />
<glyph unicode="&#xe4;" d="M86 270q0 207 188 287q51 21 108.5 32t235.5 34q104 13 140.5 37.5t38.5 80.5v45q0 77 -62 118.5t-178 41.5q-120 0 -180.5 -46t-71.5 -144h-172q3 79 20 130.5t54 92.5q116 125 356 125q198 0 301 -75t103 -218v-631q0 -40 24 -62t68 -22q19 0 37 4v-129 q-73 -18 -117 -18q-83 0 -125 37.5t-51 120.5q-91 -83 -177.5 -120.5t-187.5 -37.5q-163 0 -257.5 85.5t-94.5 231.5zM264 274q0 -82 55.5 -127t155.5 -45q146 0 254 97q38 35 53 65.5t15 73.5v192q-42 -20 -89 -30t-186 -29q-138 -20 -198 -66t-60 -131zM287 1253v211h213 v-211h-213zM618 1253v211h213v-211h-213z" />
<glyph unicode="&#xe5;" d="M86 270q0 207 188 287q51 21 108.5 32t235.5 34q104 13 140.5 37.5t38.5 80.5v45q0 77 -62 118.5t-178 41.5q-120 0 -180.5 -46t-71.5 -144h-172q3 79 20 130.5t54 92.5q116 125 356 125q198 0 301 -75t103 -218v-631q0 -40 24 -62t68 -22q19 0 37 4v-129 q-73 -18 -117 -18q-83 0 -125 37.5t-51 120.5q-91 -83 -177.5 -120.5t-187.5 -37.5q-163 0 -257.5 85.5t-94.5 231.5zM264 274q0 -82 55.5 -127t155.5 -45q146 0 254 97q38 35 53 65.5t15 73.5v192q-42 -20 -89 -30t-186 -29q-138 -20 -198 -66t-60 -131zM383 1366 q0 73 53 125.5t127 52.5q75 0 127.5 -52.5t52.5 -127.5q0 -73 -53 -125.5t-127 -52.5q-75 0 -127.5 52.5t-52.5 127.5zM473 1364q0 -35 26.5 -61.5t63.5 -26.5t63.5 26.5t26.5 61.5q0 38 -26 64t-64 26q-37 0 -63.5 -26.5t-26.5 -63.5z" />
<glyph unicode="&#xe6;" horiz-adv-x="1820" d="M70 270q0 207 188 287q104 44 344 64q107 11 142 34t36 86v45q0 78 -61.5 119t-179.5 41q-119 0 -179.5 -46t-70.5 -144h-172q3 80 19.5 131t53.5 92q54 60 146 92.5t207 32.5q264 0 358 -168q55 79 149 123.5t205 44.5q149 0 264.5 -76t168.5 -207q43 -111 43 -342h-791 q2 -81 14.5 -132.5t42.5 -96.5q43 -67 109.5 -103t148.5 -36q208 0 283 215h172q-34 -175 -155 -274t-302 -99q-118 0 -214 45t-150 125q-21 34 -33 55q-115 -120 -218.5 -172.5t-223.5 -52.5q-157 0 -250.5 86t-93.5 231zM248 274q0 -80 55 -126t150 -46q123 0 227 78 q46 35 73 74t27 68v206q-42 -19 -89 -28.5t-185 -30.5q-138 -20 -198 -65t-60 -130zM944 618h602q0 146 -82 237t-213 91q-129 0 -213 -89.5t-94 -238.5z" />
<glyph unicode="&#xe7;" horiz-adv-x="1024" d="M63 518q0 267 130 426.5t348 159.5q112 0 204 -42t148 -118q61 -88 72 -231h-172q-15 112 -81 172.5t-173 60.5q-140 0 -218.5 -114t-78.5 -316q0 -191 80 -299t221 -108q219 0 262 260h172q-10 -192 -128.5 -304t-307.5 -112l-27 -68q27 4 57 4q77 0 119.5 -35.5 t42.5 -101.5q0 -88 -67.5 -139t-184.5 -51q-59 0 -107 12.5t-149 54.5l43 84l19 -8q69 -35 105.5 -47t76.5 -12q47 0 79 26t32 66q0 35 -25.5 55.5t-69.5 20.5q-28 0 -63 -17l-25 15l64 145q-118 21 -191 76q-100 70 -153.5 196t-53.5 289z" />
<glyph unicode="&#xe8;" d="M82 522q0 266 133.5 424t357.5 158q151 0 266.5 -75.5t168.5 -207.5q43 -111 43 -342h-791q2 -81 14.5 -132.5t42.5 -96.5q43 -67 109.5 -103t148.5 -36q209 0 281 215h172q-32 -175 -153.5 -274t-305.5 -99q-227 0 -357 151.5t-130 417.5zM264 618h602 q0 145 -82.5 236.5t-212.5 91.5q-129 0 -213 -89.5t-94 -238.5zM285 1516h229l199 -304h-123z" />
<glyph unicode="&#xe9;" d="M82 522q0 266 133.5 424t357.5 158q151 0 266.5 -75.5t168.5 -207.5q43 -111 43 -342h-791q2 -81 14.5 -132.5t42.5 -96.5q43 -67 109.5 -103t148.5 -36q209 0 281 215h172q-32 -175 -153.5 -274t-305.5 -99q-227 0 -357 151.5t-130 417.5zM264 618h602 q0 145 -82.5 236.5t-212.5 91.5q-129 0 -213 -89.5t-94 -238.5zM434 1212l197 304h231l-305 -304h-123z" />
<glyph unicode="&#xea;" d="M82 522q0 266 133.5 424t357.5 158q151 0 266.5 -75.5t168.5 -207.5q43 -111 43 -342h-791q2 -81 14.5 -132.5t42.5 -96.5q43 -67 109.5 -103t148.5 -36q209 0 281 215h172q-32 -175 -153.5 -274t-305.5 -99q-227 0 -357 151.5t-130 417.5zM264 618h602 q0 145 -82.5 236.5t-212.5 91.5q-129 0 -213 -89.5t-94 -238.5zM293 1210l196 308h195l197 -308h-129l-166 197l-162 -197h-131z" />
<glyph unicode="&#xeb;" d="M82 522q0 266 133.5 424t357.5 158q151 0 266.5 -75.5t168.5 -207.5q43 -111 43 -342h-791q2 -81 14.5 -132.5t42.5 -96.5q43 -67 109.5 -103t148.5 -36q209 0 281 215h172q-32 -175 -153.5 -274t-305.5 -99q-227 0 -357 151.5t-130 417.5zM264 618h602 q0 145 -82.5 236.5t-212.5 91.5q-129 0 -213 -89.5t-94 -238.5zM313 1253v211h213v-211h-213zM645 1253v211h213v-211h-213z" />
<glyph unicode="&#xec;" horiz-adv-x="569" d="M-10 1516h231l197 -304h-123zM193 0v1073h169v-1073h-169z" />
<glyph unicode="&#xed;" horiz-adv-x="569" d="M133 1212l197 304h231l-305 -304h-123zM193 0v1073h169v-1073h-169z" />
<glyph unicode="&#xee;" horiz-adv-x="569" d="M-14 1210l196 308h195l196 -308h-129l-165 197l-162 -197h-131zM193 0v1073h169v-1073h-169z" />
<glyph unicode="&#xef;" horiz-adv-x="569" d="M6 1239v211h213v-211h-213zM193 0v1073h169v-1073h-169zM338 1239v211h213v-211h-213z" />
<glyph unicode="&#xf0;" d="M74 528q0 363 211 500q110 72 235 72q47 0 129 -27q-81 81 -200 182l-199 -92l-74 80l174 82q-62 48 -168 107l90 90q50 -22 90 -44t138 -85l198 92l82 -76l-184 -84q111 -85 177 -152.5t124 -154.5q78 -120 112.5 -234t34.5 -254q0 -278 -126 -427.5t-359 -149.5 q-232 0 -358.5 150t-126.5 425zM252 528q0 -195 82 -306t225 -111q141 0 224 110.5t83 300.5q0 200 -81 312t-226 112q-143 0 -225 -111.5t-82 -306.5z" />
<glyph unicode="&#xf1;" d="M143 0v1073h158v-180q71 113 153.5 162t202.5 49q155 0 247.5 -79.5t92.5 -213.5v-811h-170v743q0 97 -60 154t-161 57q-132 0 -211.5 -99t-79.5 -263v-592h-172zM250 1257q17 102 62 156.5t112 54.5q33 0 57.5 -6t85.5 -32q89 -35 129 -35q55 0 78 73h119 q-30 -213 -184 -213q-28 0 -54 7.5t-120 42.5q-64 26 -101 26q-45 0 -67 -74h-117z" />
<glyph unicode="&#xf2;" d="M74 528q0 270 128 423t355 153q233 0 360 -152t127 -432q0 -264 -129 -415.5t-356 -151.5q-229 0 -357 152t-128 423zM252 528q0 -195 82 -306t225 -111q141 0 224 110.5t83 300.5q0 200 -81 312t-226 112q-143 0 -225 -111.5t-82 -306.5zM270 1516h232l196 -304h-123z " />
<glyph unicode="&#xf3;" d="M74 528q0 270 128 423t355 153q233 0 360 -152t127 -432q0 -264 -129 -415.5t-356 -151.5q-229 0 -357 152t-128 423zM252 528q0 -195 82 -306t225 -111q141 0 224 110.5t83 300.5q0 200 -81 312t-226 112q-143 0 -225 -111.5t-82 -306.5zM414 1212l196 304h232 l-305 -304h-123z" />
<glyph unicode="&#xf4;" d="M74 528q0 270 128 423t355 153q233 0 360 -152t127 -432q0 -264 -129 -415.5t-356 -151.5q-229 0 -357 152t-128 423zM252 528q0 -195 82 -306t225 -111q141 0 224 110.5t83 300.5q0 200 -81 312t-226 112q-143 0 -225 -111.5t-82 -306.5zM266 1210l197 308h192l199 -308 h-131l-164 197l-162 -197h-131z" />
<glyph unicode="&#xf5;" d="M74 528q0 270 128 423t355 153q233 0 360 -152t127 -432q0 -264 -129 -415.5t-356 -151.5q-229 0 -357 152t-128 423zM244 1257q17 101 63 156t113 55q33 0 57.5 -6t85.5 -32q89 -35 129 -35q55 0 78 73h117q-13 -105 -60 -159t-122 -54q-29 0 -55.5 8t-119.5 42 q-64 26 -100 26q-49 0 -68 -74h-118zM252 528q0 -195 82 -306t225 -111q141 0 224 110.5t83 300.5q0 200 -81 312t-226 112q-143 0 -225 -111.5t-82 -306.5z" />
<glyph unicode="&#xf6;" d="M74 528q0 270 128 423t355 153q233 0 360 -152t127 -432q0 -264 -129 -415.5t-356 -151.5q-229 0 -357 152t-128 423zM252 528q0 -195 82 -306t225 -111q141 0 224 110.5t83 300.5q0 200 -81 312t-226 112q-143 0 -225 -111.5t-82 -306.5zM287 1253v211h213v-211h-213z M618 1253v211h213v-211h-213z" />
<glyph unicode="&#xf7;" horiz-adv-x="1196" d="M102 412v143h992v-143h-992zM492 0v213h213v-213h-213zM492 754v213h213v-213h-213z" />
<glyph unicode="&#xf8;" horiz-adv-x="1251" d="M37 -4l135 151q-98 144 -98 381q0 272 128 424t357 152q207 0 340 -133l119 133l65 -57l-129 -146q90 -150 90 -373q0 -270 -128 -422.5t-355 -152.5q-210 0 -334 127l-125 -141zM252 528q0 -135 43 -239l489 551q-83 106 -225 106q-143 0 -225 -111.5t-82 -306.5z M342 209q88 -98 217 -98q143 0 225 111t82 306q0 134 -37 232z" />
<glyph unicode="&#xf9;" d="M133 246v827h170v-760q0 -97 60 -154t161 -57q133 0 213 99t80 264v608h170v-1073h-153v150q-75 -106 -158 -151.5t-201 -45.5q-157 0 -249.5 79.5t-92.5 213.5zM266 1516h232l196 -304h-123z" />
<glyph unicode="&#xfa;" d="M133 246v827h170v-760q0 -97 60 -154t161 -57q133 0 213 99t80 264v608h170v-1073h-153v150q-75 -106 -158 -151.5t-201 -45.5q-157 0 -249.5 79.5t-92.5 213.5zM410 1212l196 304h232l-306 -304h-122z" />
<glyph unicode="&#xfb;" d="M133 246v827h170v-760q0 -97 60 -154t161 -57q133 0 213 99t80 264v608h170v-1073h-153v150q-75 -106 -158 -151.5t-201 -45.5q-157 0 -249.5 79.5t-92.5 213.5zM268 1210l197 308h194l197 -308h-129l-166 197l-162 -197h-131z" />
<glyph unicode="&#xfc;" d="M133 246v827h170v-760q0 -97 60 -154t161 -57q133 0 213 99t80 264v608h170v-1073h-153v150q-75 -106 -158 -151.5t-201 -45.5q-157 0 -249.5 79.5t-92.5 213.5zM289 1253v211h213v-211h-213zM621 1253v211h213v-211h-213z" />
<glyph unicode="&#xfd;" horiz-adv-x="1024" d="M41 1073h182l275 -835l297 835h184l-477 -1298q-25 -64 -51 -102.5t-66 -67.5q-70 -51 -160 -51q-63 0 -114 26v154q60 -13 90 -13q54 0 84.5 24t52.5 81l65 170zM358 1212l197 304h231l-305 -304h-123z" />
<glyph unicode="&#xfe;" d="M111 -446v1908h170v-522q56 78 141.5 121t187.5 43q209 0 334 -159.5t125 -426.5q0 -257 -125 -411t-334 -154q-104 0 -182.5 38.5t-146.5 121.5v-559h-170zM281 528q0 -189 81.5 -302t217.5 -113q139 0 225 113t86 296q0 192 -85 307t-226 115q-136 0 -217.5 -113.5 t-81.5 -302.5z" />
<glyph unicode="&#xff;" horiz-adv-x="1024" d="M41 1073h182l275 -835l297 835h184l-477 -1298q-25 -64 -51 -102.5t-66 -67.5q-70 -51 -160 -51q-63 0 -114 26v154q60 -13 90 -13q54 0 84.5 24t52.5 81l65 170zM231 1253v211h213v-211h-213zM563 1253v211h213v-211h-213z" />
<glyph unicode="&#x152;" horiz-adv-x="2048" d="M88 729q0 423 209 629q77 75 184 117.5t219 42.5q246 0 375 -181v156h879v-168h-688v-487h671v-168h-671v-502h698v-168h-889v152q-71 -100 -162 -146.5t-215 -46.5q-131 0 -242 48t-190 140q-178 204 -178 582zM279 737q0 -157 24.5 -262t79.5 -188q111 -160 315 -160 q255 0 377 246v731q-122 246 -375 246q-206 0 -317 -160q-55 -83 -79.5 -189.5t-24.5 -263.5z" />
<glyph unicode="&#x153;" horiz-adv-x="1933" d="M82 530q0 275 126 424.5t359 149.5q278 0 402 -217q63 103 166 160t229 57q151 0 266 -75.5t168 -207.5q43 -111 43 -342h-790q2 -81 14.5 -132.5t42.5 -96.5q43 -67 109.5 -103t148.5 -36q209 0 281 215h172q-32 -175 -153 -274t-304 -99q-131 0 -233.5 54.5 t-163.5 156.5q-129 -211 -398 -211q-233 0 -359 150t-126 427zM260 530q0 -196 82 -307.5t225 -111.5t225 110.5t82 302.5q0 199 -81 310.5t-226 111.5q-143 0 -225 -111.5t-82 -304.5zM1055 618h602q0 146 -82 237t-213 91q-130 0 -213 -89t-94 -239z" />
<glyph unicode="&#x178;" horiz-adv-x="1366" d="M27 1493h235l438 -727l426 727h228l-561 -907v-586h-191v586zM426 1661v211h213v-211h-213zM758 1661v211h213v-211h-213z" />
<glyph unicode="&#x2c6;" horiz-adv-x="681" d="M41 1210l197 308h194l197 -308h-129l-166 197l-162 -197h-131z" />
<glyph unicode="&#x2dc;" horiz-adv-x="681" d="M10 1257q17 101 63 156t113 55q33 0 57 -6t87 -32q89 -35 129 -35q53 0 76 73h118q-30 -213 -182 -213q-29 0 -56.5 8t-117.5 42q-66 26 -100 26q-49 0 -68 -74h-119z" />
<glyph unicode="&#x2000;" horiz-adv-x="976" />
<glyph unicode="&#x2001;" horiz-adv-x="1952" />
<glyph unicode="&#x2002;" horiz-adv-x="976" />
<glyph unicode="&#x2003;" horiz-adv-x="1952" />
<glyph unicode="&#x2004;" horiz-adv-x="650" />
<glyph unicode="&#x2005;" horiz-adv-x="488" />
<glyph unicode="&#x2006;" horiz-adv-x="325" />
<glyph unicode="&#x2007;" horiz-adv-x="325" />
<glyph unicode="&#x2008;" horiz-adv-x="244" />
<glyph unicode="&#x2009;" horiz-adv-x="390" />
<glyph unicode="&#x200a;" horiz-adv-x="108" />
<glyph unicode="&#x2010;" horiz-adv-x="681" d="M94 492v147h488v-147h-488z" />
<glyph unicode="&#x2011;" horiz-adv-x="681" d="M94 492v147h488v-147h-488z" />
<glyph unicode="&#x2012;" horiz-adv-x="681" d="M94 492v147h488v-147h-488z" />
<glyph unicode="&#x2013;" d="M-10 492v147h1159v-147h-1159z" />
<glyph unicode="&#x2014;" horiz-adv-x="2048" d="M-18 492v147h2068v-147h-2068z" />
<glyph unicode="&#x2018;" horiz-adv-x="454" d="M133 977v207q0 121 50 190.5t141 77.5v-78q-53 -8 -76.5 -52t-22.5 -132h99v-213h-191z" />
<glyph unicode="&#x2019;" horiz-adv-x="454" d="M133 1018v78q54 7 77 50.5t21 133.5h-98v213h191v-207q0 -123 -49.5 -192.5t-141.5 -75.5z" />
<glyph unicode="&#x201a;" horiz-adv-x="454" d="M131 -184q56 8 79.5 51.5t20.5 132.5h-98v213h191v-207q0 -123 -50.5 -192.5t-142.5 -75.5v78z" />
<glyph unicode="&#x201c;" horiz-adv-x="681" d="M98 977v207q0 121 50 190.5t141 77.5v-78q-53 -8 -76.5 -52t-22.5 -132h99v-213h-191zM422 977v207q0 121 49.5 190.5t140.5 77.5v-78q-52 -7 -76 -51.5t-22 -132.5h98v-213h-190z" />
<glyph unicode="&#x201d;" horiz-adv-x="681" d="M100 977v78q54 7 77.5 51t21.5 133h-99v213h191v-207q0 -123 -49.5 -192.5t-141.5 -75.5zM428 977v78q54 7 77 50.5t21 133.5h-98v213h190v-207q0 -123 -49 -192.5t-141 -75.5z" />
<glyph unicode="&#x201e;" horiz-adv-x="681" d="M96 0v213h191v-207q0 -123 -49.5 -192.5t-141.5 -75.5v78q54 7 77.5 51t21.5 133h-99zM424 0v213h190v-207q0 -123 -49 -192.5t-141 -75.5v78q54 7 77 50.5t21 133.5h-98z" />
<glyph unicode="&#x2022;" horiz-adv-x="716" d="M102 707q0 106 75 181t181 75q107 0 181.5 -76t74.5 -185q0 -103 -76 -177t-180 -74q-106 0 -181 75t-75 181z" />
<glyph unicode="&#x2026;" horiz-adv-x="2048" d="M236 0v213h213v-213h-213zM918 0v213h212v-213h-212zM1599 0v213h213v-213h-213z" />
<glyph unicode="&#x202f;" horiz-adv-x="390" />
<glyph unicode="&#x2039;" horiz-adv-x="681" d="M186 465v182l312 250v-170l-217 -170l217 -170v-170z" />
<glyph unicode="&#x203a;" horiz-adv-x="681" d="M174 217v170l221 170l-221 170v170l315 -248v-182z" />
<glyph unicode="&#x205f;" horiz-adv-x="488" />
<glyph unicode="&#x20ac;" d="M4 520l45 121h113v49q0 47 4 86h-162l45 121h129q30 195 135 348q143 207 406 207q106 0 199 -32.5t194 -104.5l-65 -164q-112 83 -186 114t-156 31q-132 0 -214.5 -97.5t-125.5 -301.5h581l-47 -121h-553q-4 -54 -4 -74q0 -38 2 -61h504l-49 -121h-439q77 -405 347 -405 q75 0 144 25.5t196 99.5v-191q-152 -94 -340 -94q-130 0 -238 56t-168 155q-89 143 -127 354h-170z" />
<glyph unicode="&#x2122;" horiz-adv-x="2048" d="M129 1380v113h768v-113h-313v-782h-140v782h-315zM1004 598v895h192l270 -741l269 741h186v-895h-137v698l-252 -698h-143l-248 698v-698h-137z" />
<glyph unicode="&#x25fc;" horiz-adv-x="1075" d="M0 0v1075h1075v-1075h-1075z" />
<glyph unicode="&#xfb04;" horiz-adv-x="1593" d="M37 934v139h143v182q0 115 66.5 179.5t185.5 64.5q47 0 96 -10v-141q-39 2 -59 2q-119 0 -119 -109v-168h178v-139h-178v-934h-170v934h-143zM606 934v139h144v182q0 115 66 179.5t185 64.5q48 0 97 -10v-141q-39 2 -60 2q-118 0 -118 -109v-168h178v-139h-178v-934h-170 v934h-144zM1278 0v1493h172v-1493h-172z" />
</font>
</defs>
</svg>
