<?xml version="1.0" standalone="no"?>
<!DOCTYPE svg PUBLIC "-//W3C//DTD SVG 1.1//EN" "http://www.w3.org/Graphics/SVG/1.1/DTD/svg11.dtd" >
<svg xmlns="http://www.w3.org/2000/svg" xmlns:xlink="http://www.w3.org/1999/xlink" version="1.1">
<metadata></metadata>
<defs>
<font id="nimbus_sans_lbold_italic" horiz-adv-x="1138" >
<font-face units-per-em="2048" ascent="1493" descent="-555" />
<missing-glyph horiz-adv-x="569" />
<glyph unicode="&#xfb01;" horiz-adv-x="1251" d="M184 0l191 893h-158l41 190h156l28 134q31 143 115.5 209.5t235.5 66.5q61 0 157 -6l-45 -215q-68 8 -86 8q-76 0 -94 -88l-25 -109h170l-41 -190h-167l-191 -893h-287zM819 0l236 1106h286l-235 -1106h-287zM1081 1237l56 256h286l-55 -256h-287z" />
<glyph unicode="&#xfb02;" horiz-adv-x="1251" d="M184 0l191 893h-158l41 190h156l28 134q31 143 115.5 209.5t235.5 66.5q61 0 157 -6l-45 -215q-68 8 -86 8q-76 0 -94 -88l-25 -109h170l-41 -190h-167l-191 -893h-287zM819 0l318 1493h286l-317 -1493h-287z" />
<glyph unicode="&#xfb03;" horiz-adv-x="1931" d="M184 0l191 893h-158l41 190h156l28 134q31 143 115.5 209.5t235.5 66.5q61 0 157 -6l-45 -215q-68 8 -86 8q-76 0 -94 -88l-25 -109h170l-41 -190h-167l-191 -893h-287zM866 0l191 893h-158l41 190h156l28 134q31 143 115.5 209.5t235.5 66.5q61 0 157 -6l-45 -215 q-68 8 -86 8q-76 0 -94 -88l-25 -109h170l-41 -190h-168l-190 -893h-287zM1501 0l236 1106h286l-235 -1106h-287zM1763 1237l56 256h286l-55 -256h-287z" />
<glyph horiz-adv-x="0" />
<glyph horiz-adv-x="682" />
<glyph unicode=" "  horiz-adv-x="569" />
<glyph unicode="&#x09;" horiz-adv-x="569" />
<glyph unicode="&#xa0;" horiz-adv-x="569" />
<glyph unicode="!" horiz-adv-x="681" d="M229 0l64 299h307l-63 -299h-308zM406 424l49 633l92 430h307l-92 -430l-219 -633h-137z" />
<glyph unicode="&#x22;" horiz-adv-x="970" d="M362 1227l58 266h282l-57 -266l-141 -264h-115zM846 1227l57 266h283l-58 -266l-141 -264h-115z" />
<glyph unicode="#" d="M68 -66l170 418h-158l43 205h199l127 311h-203l45 205h241l146 354h217l-147 -354h210l146 354h217l-147 -354h178l-43 -205h-217l-127 -311h202l-43 -205h-243l-172 -418h-215l170 418h-209l-172 -418h-215zM537 557h211l126 311h-208z" />
<glyph unicode="$" d="M121 303q0 56 16 121h266q-2 -29 -2 -68q0 -153 134 -180l94 436q-338 85 -338 361q0 125 70 235.5t190 171.5q111 58 256 72l22 111h140l-25 -111q160 -14 240 -82q102 -88 102 -250q0 -46 -10 -100h-262q6 59 6 82q0 58 -31.5 96t-87.5 47l-88 -411q189 -59 275 -142 t86 -207q0 -135 -73 -258t-190 -188q-121 -65 -284 -82l-45 -215h-140l47 215q-179 19 -273.5 108t-94.5 238zM557 1026q0 -103 127 -152l78 371q-73 -14 -109 -39q-43 -29 -69.5 -78.5t-26.5 -101.5zM674 176q98 23 152.5 83.5t54.5 146.5q0 122 -121 172z" />
<glyph unicode="%" horiz-adv-x="1820" d="M264 987q0 113 64.5 217.5t170.5 168t222 63.5q137 0 225 -83t88 -212q0 -87 -38.5 -170t-101 -144.5t-147.5 -99t-174 -37.5q-133 0 -221 84.5t-88 212.5zM422 -41l1126 1493h158l-1128 -1493h-156zM469 1026q0 -58 42 -96.5t107 -38.5q84 0 147.5 62.5t63.5 144.5 q0 60 -42.5 98.5t-108.5 38.5q-82 0 -145.5 -63t-63.5 -146zM1079 256q0 113 64.5 217.5t170.5 168t222 63.5q137 0 225 -83t88 -212q0 -116 -64 -220.5t-170.5 -167.5t-225.5 -63q-133 0 -221.5 84.5t-88.5 212.5zM1284 295q0 -58 42.5 -96.5t107.5 -38.5q84 0 147.5 62.5 t63.5 144.5q0 60 -43 98.5t-109 38.5q-82 0 -145.5 -63t-63.5 -146z" />
<glyph unicode="&#x26;" horiz-adv-x="1478" d="M182 319q0 116 55.5 215t161.5 171q70 50 213 116q-108 155 -108 250q0 107 63.5 202t170 151.5t227.5 56.5q140 0 226.5 -66.5t86.5 -173.5q0 -72 -29 -145.5t-80 -130.5q-61 -69 -217 -162l168 -281q52 47 79 100t44 142h232q-17 -113 -84 -233.5t-158 -202.5l192 -328 h-327l-76 123q-142 -102 -228.5 -136t-205.5 -34q-192 0 -299 96.5t-107 269.5zM463 383q0 -80 53.5 -136.5t128.5 -56.5q53 0 109.5 25.5t158.5 95.5l-202 342l-107 -59q-76 -43 -108.5 -91.5t-32.5 -119.5zM784 1130q0 -28 12 -54.5t62 -112.5q164 85 164 213 q0 40 -27.5 62t-76.5 22q-59 0 -96.5 -36.5t-37.5 -93.5z" />
<glyph unicode="'" horiz-adv-x="487" d="M362 1227l58 266h282l-57 -266l-143 -264h-113z" />
<glyph unicode="(" horiz-adv-x="681" d="M172 250q0 312 134 608.5t427 634.5h205q-204 -280 -293 -442q-229 -415 -229 -822q0 -141 25.5 -278.5t93.5 -360.5h-205q-158 361 -158 660z" />
<glyph unicode=")" horiz-adv-x="681" d="M-43 -410q196 264 297 443q231 413 231 819q0 144 -26.5 278.5t-98.5 362.5h205q164 -363 164 -662q0 -213 -68 -430t-198 -419q-120 -183 -301 -392h-205z" />
<glyph unicode="*" horiz-adv-x="796" d="M297 1188l76 141l207 -74l49 238h147l-51 -238l240 74l14 -143l-238 -72l97 -192l-138 -88l-96 192l-178 -192l-100 88l178 192z" />
<glyph unicode="+" horiz-adv-x="1196" d="M178 352l51 246h373l80 371h244l-80 -371h375l-52 -246h-374l-80 -372h-244l80 372h-373z" />
<glyph unicode="," horiz-adv-x="569" d="M55 -356l25 114q187 34 227 242h-176l64 299h307l-60 -281q-29 -168 -123.5 -258.5t-263.5 -115.5z" />
<glyph unicode="-" horiz-adv-x="681" d="M143 424l60 276h557l-60 -276h-557z" />
<glyph unicode="." horiz-adv-x="569" d="M131 0l64 299h307l-64 -299h-307z" />
<glyph unicode="/" horiz-adv-x="569" d="M-2 -29l739 1491h137l-739 -1491h-137z" />
<glyph unicode="0" d="M166 360q0 156 49.5 381t114.5 367q85 182 222 278.5t310 96.5q186 0 290.5 -107.5t104.5 -298.5q0 -157 -49.5 -383.5t-113.5 -365.5q-85 -183 -223 -279t-316 -96q-182 0 -285.5 108.5t-103.5 298.5zM459 375q0 -78 42.5 -125t112.5 -47q91 0 148 65t100 217 q42 147 72.5 324t30.5 272q0 78 -43 125t-115 47q-107 0 -180 -116q-51 -82 -109.5 -347.5t-58.5 -414.5z" />
<glyph unicode="1" d="M352 1001l41 191q376 0 500 260h190l-309 -1452h-287l213 1001h-348z" />
<glyph unicode="2" d="M61 0q54 203 149 321.5t308 245.5q182 113 250.5 161.5t114.5 98.5q110 113 110 263q0 77 -46 120t-128 43q-107 0 -174.5 -79t-87.5 -228h-274q40 258 190 397.5t389 139.5q199 0 311.5 -93.5t112.5 -259.5q0 -198 -133 -356q-50 -59 -117.5 -112t-193.5 -132 q-188 -120 -253 -169.5t-102 -104.5h615l-53 -256h-988z" />
<glyph unicode="3" d="M137 309q0 44 13 117h278l2 -20v-46q2 -75 49.5 -116t134.5 -41q129 0 205 116q45 70 45 154q0 61 -30 103t-86 59q-36 10 -58.5 12t-107.5 2l41 193h22q140 0 223.5 72.5t83.5 195.5q0 64 -43 103.5t-114 39.5q-129 0 -189 -104q-27 -47 -51 -154h-264 q24 122 55.5 195.5t87.5 134.5q143 158 412 158q195 0 302 -80.5t107 -228.5q0 -247 -245 -396q147 -88 147 -252q0 -98 -36 -200.5t-97 -178.5q-159 -194 -467 -194q-199 0 -309.5 93.5t-110.5 262.5z" />
<glyph unicode="4" d="M117 322l51 241l721 889h338l-191 -893h152l-51 -237h-150l-69 -322h-287l69 322h-583zM373 559h377l133 623z" />
<glyph unicode="5" d="M121 289q0 39 10 90h283q-4 -36 -4 -47q0 -59 48.5 -94t131.5 -35q124 0 206.5 103.5t82.5 258.5q0 91 -48 139t-137 48q-134 0 -207 -109h-258l299 809h785l-56 -256h-606l-110 -303q72 47 134.5 67.5t137.5 20.5q166 0 262 -98.5t96 -268.5q0 -107 -35 -213t-98 -194 q-91 -123 -222 -188.5t-286 -65.5q-186 0 -297.5 92t-111.5 244z" />
<glyph unicode="6" d="M174 350q0 188 61.5 430t143.5 375q201 328 528 328q175 0 274 -84t99 -230q0 -29 -2 -47h-266q-13 70 -51.5 100.5t-112.5 30.5q-88 0 -147.5 -48.5t-102.5 -155.5q-27 -67 -66 -207q145 114 306 114t252.5 -91t91.5 -251q0 -110 -40.5 -225t-111.5 -209 q-82 -109 -198.5 -168t-249.5 -59q-186 0 -297 107t-111 290zM440 385q0 -80 49 -131t127 -51q112 0 192.5 102.5t80.5 245.5q0 80 -46 128t-122 48q-114 0 -197.5 -102t-83.5 -240z" />
<glyph unicode="7" d="M268 0q123 372 294 639.5t470 556.5h-723l56 256h1026l-48 -225q-25 -24 -215 -221q-226 -251 -356.5 -482t-212.5 -524h-291z" />
<glyph unicode="8" d="M123 317q0 85 32 171t89 153q38 44 85 78t124 72q-73 56 -103.5 106t-30.5 117q0 126 73.5 234t199.5 171.5t272 63.5q180 0 293 -88t113 -228q0 -73 -32 -145t-91 -129q-41 -43 -141 -102q94 -57 133 -119t39 -154q0 -104 -47.5 -212t-129.5 -187q-84 -80 -196.5 -123 t-239.5 -43q-204 0 -323 98.5t-119 265.5zM416 369q0 -72 54 -119t138 -47q121 0 199 85.5t78 217.5q0 78 -50 124t-135 46q-120 0 -202 -89t-82 -218zM569 1024q0 -70 47 -112t127 -42q109 0 185 69t76 167q0 66 -52 106.5t-137 40.5q-104 0 -175 -66t-71 -163z" />
<glyph unicode="9" d="M139 270q0 27 8 68h277q-2 -10 -2 -25q0 -49 45 -79.5t117 -30.5q77 0 139.5 44.5t99.5 125.5q38 87 70 223q-87 -74 -151 -101.5t-150 -27.5q-161 0 -253.5 95.5t-92.5 262.5q0 182 79.5 333t217.5 238t303 87q185 0 295 -114t110 -306q0 -187 -59 -406t-154 -381 q-187 -323 -530 -323q-164 0 -266.5 88t-102.5 229zM526 883q0 -82 44.5 -130t119.5 -48q123 0 209 104.5t86 253.5q0 88 -51 139t-137 51q-114 0 -192.5 -107.5t-78.5 -262.5z" />
<glyph unicode=":" horiz-adv-x="681" d="M231 0l64 299h307l-63 -299h-308zM395 766l64 299h307l-64 -299h-307z" />
<glyph unicode=";" horiz-adv-x="681" d="M156 -356l24 114q188 34 228 242h-177l64 299h307l-59 -281q-29 -168 -123.5 -258.5t-263.5 -115.5zM395 766l64 299h307l-64 -299h-307z" />
<glyph unicode="&#x3c;" horiz-adv-x="1196" d="M158 352l53 248l1079 371l-55 -264l-696 -232l598 -227l-58 -268z" />
<glyph unicode="=" horiz-adv-x="1196" d="M125 106l51 246h993l-51 -246h-993zM229 598l52 246h993l-51 -246h-994z" />
<glyph unicode="&#x3e;" horiz-adv-x="1196" d="M78 -20l55 264l696 231l-598 227l58 269l921 -373l-53 -248z" />
<glyph unicode="?" horiz-adv-x="1251" d="M344 985q29 130 66.5 212.5t97.5 148.5q166 178 428 178q201 0 311 -90q61 -47 95 -120t34 -155q0 -83 -28 -167.5t-74 -145.5q-66 -85 -240 -191q-105 -65 -134.5 -103.5t-51.5 -139.5h-250q11 117 77 210.5t210 194.5q86 60 114.5 86t51.5 66q32 62 32 123 q0 78 -51.5 128t-134.5 50q-104 0 -176 -75t-98 -210h-279zM485 0l64 299h307l-63 -299h-308z" />
<glyph unicode="@" horiz-adv-x="1996" d="M150 371q0 200 87 403t244 367q175 184 407 284.5t484 100.5q393 0 604 -260q138 -166 138 -367q0 -283 -181 -504q-109 -134 -236 -207t-253 -73q-174 0 -221 143q-155 -149 -326 -149q-124 0 -202.5 77.5t-78.5 200.5q0 92 49 201t136 211q106 124 233 193t250 69 q75 0 120.5 -32.5t76.5 -108.5l55 120h184l-278 -573q-26 -51 -32.5 -69.5t-6.5 -41.5q0 -33 21.5 -52t58.5 -19q64 0 147 55.5t152 144.5q67 86 104 187.5t37 197.5q0 161 -129 299q-91 97 -205.5 142t-273.5 45q-233 0 -428 -98.5t-330 -284.5q-96 -131 -149.5 -282 t-53.5 -290q0 -149 78.5 -265.5t220.5 -181.5t322 -65q97 0 192.5 18.5t241.5 65.5l25 -161q-233 -93 -506 -93q-379 0 -586 195q-92 88 -142 207t-50 250zM821 440q0 -72 38 -116.5t99 -44.5q69 0 144.5 48.5t142.5 137.5q59 76 94 158.5t35 146.5q0 62 -36 101t-97 42 q-85 5 -185 -69t-167.5 -188t-67.5 -216z" />
<glyph unicode="A" horiz-adv-x="1478" d="M53 0l834 1493h354l199 -1493h-314l-36 301h-558l-165 -301h-314zM674 557h387l-72 580z" />
<glyph unicode="B" horiz-adv-x="1478" d="M168 0l317 1493h666q219 0 328 -109q38 -41 60 -98t22 -117q0 -219 -240 -374q78 -61 111.5 -124.5t33.5 -148.5q0 -92 -45.5 -190t-120.5 -172q-86 -83 -196 -121.5t-264 -38.5h-672zM530 256h365q88 0 137 21t84 73q47 70 47 152q0 72 -45.5 106.5t-140.5 34.5h-365z M666 899h335q80 0 121.5 14t75.5 52q57 60 57 145q0 66 -43.5 96.5t-138.5 30.5h-336z" />
<glyph unicode="C" horiz-adv-x="1478" d="M219 481q0 197 63 391.5t171 329.5q126 155 288 235.5t351 80.5q238 0 385 -118t147 -310q0 -30 -8 -103h-289q0 60 -7.5 94.5t-27.5 65.5q-64 108 -235 108q-246 0 -387 -223q-69 -108 -107.5 -236t-38.5 -255q0 -161 76 -243.5t225 -82.5q148 0 253 77t149 218h293 q-67 -262 -262.5 -409.5t-475.5 -147.5q-262 0 -412.5 141t-150.5 387z" />
<glyph unicode="D" horiz-adv-x="1478" d="M158 0l317 1493h584q278 0 404 -121.5t126 -390.5q0 -182 -59.5 -363t-169.5 -331q-113 -155 -254.5 -221t-364.5 -66h-583zM520 256h275q134 0 217 48t149 163q53 91 88 232t35 262q0 276 -280 276h-277z" />
<glyph unicode="E" horiz-adv-x="1366" d="M162 0l317 1493h1082l-56 -256h-774l-72 -338h715l-53 -256h-715l-82 -387h809l-55 -256h-1116z" />
<glyph unicode="F" horiz-adv-x="1251" d="M152 0l317 1493h1049l-56 -256h-741l-72 -338h656l-56 -256h-653l-137 -643h-307z" />
<glyph unicode="G" horiz-adv-x="1593" d="M219 537q0 179 69 362t189 322q256 297 643 297q250 0 403.5 -120t153.5 -315q0 -9 -4 -67h-282q-12 117 -96.5 178t-231.5 61q-266 0 -412 -229q-55 -85 -91 -210t-36 -234q0 -160 98 -263.5t250 -103.5q90 0 176.5 37t155.5 106q73 70 111 189h-340l55 256h598 l-172 -807h-184l14 184q-114 -122 -224.5 -174.5t-252.5 -52.5q-270 0 -430 158.5t-160 425.5z" />
<glyph unicode="H" horiz-adv-x="1478" d="M139 0l318 1493h307l-119 -559h590l119 559h309l-317 -1493h-308l144 678h-592l-144 -678h-307z" />
<glyph unicode="I" horiz-adv-x="569" d="M129 0l317 1493h308l-318 -1493h-307z" />
<glyph unicode="J" d="M121 272q0 71 14 134l31 147h307l-33 -158q-8 -33 -8 -69q0 -49 37.5 -80t97.5 -31q82 0 134 44.5t69 129.5l236 1104h307l-236 -1104q-50 -240 -205 -342q-66 -43 -165 -68.5t-201 -25.5q-180 0 -282.5 85t-102.5 234z" />
<glyph unicode="K" horiz-adv-x="1478" d="M152 0l317 1493h307l-139 -655l725 655h364l-739 -653l481 -840h-366l-354 643l-187 -164l-102 -479h-307z" />
<glyph unicode="L" horiz-adv-x="1251" d="M164 0l317 1493h307l-262 -1237h715l-55 -256h-1022z" />
<glyph unicode="M" horiz-adv-x="1705" d="M135 0l318 1493h444l41 -1147l520 1147h449l-318 -1493h-291l271 1268l-551 -1268h-307l-15 1268l-270 -1268h-291z" />
<glyph unicode="N" horiz-adv-x="1478" d="M139 0l318 1493h307l393 -1055l223 1055h291l-317 -1493h-303l-394 1071l-227 -1071h-291z" />
<glyph unicode="O" horiz-adv-x="1593" d="M217 535q0 177 68 359t188 323q249 301 629 301q281 0 437.5 -154t156.5 -432q0 -182 -66 -360.5t-186 -317.5q-132 -157 -284.5 -229t-350.5 -72q-274 0 -433 156.5t-159 425.5zM522 578q0 -167 90.5 -265t245.5 -98q237 0 389 213q66 94 105 220t39 247 q0 169 -87 264.5t-241 95.5q-237 0 -393 -213q-68 -94 -108 -219.5t-40 -244.5z" />
<glyph unicode="P" horiz-adv-x="1366" d="M156 0l317 1493h631q103 0 171 -18.5t124 -61.5q63 -47 97 -116.5t34 -149.5q0 -119 -48.5 -240t-131.5 -209q-83 -87 -176.5 -126.5t-215.5 -39.5h-383l-112 -532h-307zM631 788h313q156 0 230 105q22 32 36.5 84t14.5 98q0 72 -51 117t-134 45h-315z" />
<glyph unicode="Q" horiz-adv-x="1593" d="M223 537q0 179 66.5 360.5t183.5 319.5q129 153 283.5 227t345.5 74q281 0 440.5 -156.5t159.5 -433.5q0 -189 -83.5 -390t-213.5 -327l131 -156l-190 -166l-142 166q-177 -102 -391 -102q-271 0 -430.5 157.5t-159.5 426.5zM528 578q0 -169 88 -266t240 -97q99 0 182 39 l-127 149l193 166l133 -159q71 90 115.5 224t44.5 259q0 170 -89 266t-247 96q-234 0 -387 -215q-68 -94 -107 -217.5t-39 -244.5z" />
<glyph unicode="R" horiz-adv-x="1478" d="M164 0l317 1493h772q173 0 267 -94q41 -41 64.5 -97.5t23.5 -115.5q0 -87 -35.5 -176t-95.5 -150q-37 -38 -83 -68.5t-128 -70.5q159 -53 159 -168q0 -69 -57 -375q-6 -30 -6 -53q0 -43 37 -70l-13 -55h-325q-17 52 -17 84q0 78 54 270q24 91 24 125q0 113 -174 113h-352 l-125 -592h-307zM651 848h371q76 0 127.5 20t91.5 64q29 30 45.5 74.5t16.5 87.5q0 57 -46 100q-30 23 -70 33t-110 10h-344z" />
<glyph unicode="S" horiz-adv-x="1366" d="M156 356q0 35 8 90h299q-4 -36 -4 -47q0 -88 76.5 -136t216.5 -48q160 0 255 61.5t95 165.5q0 72 -53 109t-193 65l-201 41q-183 37 -264.5 110t-81.5 200q0 109 51 216.5t138 182.5q174 152 471 152q244 0 380 -93.5t136 -259.5q0 -46 -17 -127h-286q4 36 4 47 q0 83 -70 126.5t-201 43.5q-139 0 -220 -57.5t-81 -155.5q0 -58 51.5 -89t196.5 -60l223 -45q157 -31 239.5 -109t82.5 -196q0 -101 -38.5 -205t-102.5 -176q-182 -209 -559 -209q-292 0 -437 133q-114 105 -114 270z" />
<glyph unicode="T" horiz-adv-x="1251" d="M291 1237l55 256h1196l-55 -256h-434l-265 -1237h-307l264 1237h-454z" />
<glyph unicode="U" horiz-adv-x="1478" d="M244 342q0 70 22 180l207 971h307l-215 -1012q-10 -55 -10 -92q0 -83 65.5 -128.5t184.5 -45.5q141 0 221 64t109 202l215 1012h307l-215 -1012q-28 -128 -80 -218t-139 -159q-193 -151 -473 -151q-232 0 -369 105.5t-137 283.5z" />
<glyph unicode="V" horiz-adv-x="1366" d="M367 1493h309l92 -1124l565 1124h309l-823 -1493h-260z" />
<glyph unicode="W" horiz-adv-x="1933" d="M344 1493h326l-6 -1118l458 1118h324l-6 -1122l461 1122h325l-731 -1493h-276l-9 1137l-485 -1137h-276z" />
<glyph unicode="X" horiz-adv-x="1366" d="M45 0l635 752l-297 741h365l161 -483l375 483h358l-620 -731l319 -762h-366l-184 510l-388 -510h-358z" />
<glyph unicode="Y" horiz-adv-x="1366" d="M373 1493h342l168 -645l424 645h342l-672 -940l-119 -553h-307l119 553z" />
<glyph unicode="Z" horiz-adv-x="1251" d="M61 0l56 256l970 981h-763l55 256h1122l-55 -256l-971 -981h764l-55 -256h-1123z" />
<glyph unicode="[" horiz-adv-x="681" d="M47 -410l404 1903h497l-45 -205h-231l-316 -1493h232l-43 -205h-498z" />
<glyph unicode="\" horiz-adv-x="569" d="M283 1452h151l150 -1499h-154z" />
<glyph unicode="]" horiz-adv-x="681" d="M-51 -410l45 205h231l316 1493h-232l43 205h498l-404 -1903h-497z" />
<glyph unicode="^" horiz-adv-x="1196" d="M244 553l522 870h256l166 -870h-232l-118 614l-365 -614h-229z" />
<glyph unicode="_" d="M-133 -297l31 141h1228l-30 -141h-1229z" />
<glyph unicode="`" horiz-adv-x="681" d="M358 1550h244l92 -307h-129z" />
<glyph unicode="a" d="M102 221q0 92 47.5 179.5t129.5 146.5q93 67 237 90l119 18q110 15 133.5 20.5t54.5 22.5q31 15 50.5 46t19.5 63q0 46 -36 67t-114 21q-100 0 -151.5 -34.5t-77.5 -119.5h-268q43 200 173.5 291.5t371.5 91.5q213 0 309 -77q37 -29 60.5 -77.5t23.5 -92.5q0 -33 -13 -93 l-129 -614q-6 -24 -6 -43q0 -43 43 -92l-8 -35h-313q-15 34 -15 55q0 20 7 56q-92 -84 -172 -121t-168 -37q-136 0 -211 63q-45 37 -71 92t-26 113zM395 285q0 -103 150 -103q104 0 175 68t99 194l17 78q-27 -15 -54 -20q-4 -1 -18.5 -3.5t-24.5 -4.5l-32 -7l-103 -16 q-100 -17 -154.5 -65.5t-54.5 -120.5z" />
<glyph unicode="b" horiz-adv-x="1251" d="M121 0l317 1493h287l-113 -530q136 161 340 161q163 0 261 -116t98 -308q0 -143 -51 -280.5t-134 -239.5t-195.5 -164.5t-228.5 -62.5q-105 0 -170 38.5t-100 121.5l-24 -113h-287zM508 414q0 -105 49 -168.5t131 -63.5q86 0 162.5 65t122 174t45.5 232q0 113 -48 177.5 t-132 64.5q-86 0 -162.5 -66t-122 -177t-45.5 -238z" />
<glyph unicode="c" d="M158 352q0 146 58 308.5t149 269.5q157 194 450 194q200 0 309 -112q99 -99 99 -232q0 -14 -9 -88h-274q-2 97 -22 135q-43 68 -146 68q-85 0 -144 -41.5t-102 -132.5q-75 -150 -75 -328q0 -107 45 -159t137 -52q83 0 138.5 46t102.5 155h275q-64 -205 -208.5 -317.5 t-344.5 -112.5q-228 0 -338 125q-100 114 -100 274z" />
<glyph unicode="d" horiz-adv-x="1251" d="M162 379q0 126 42.5 257.5t117.5 240.5q79 115 197 181t243 66q105 0 171 -39t101 -122l113 530h287l-318 -1493h-287l25 113q-135 -160 -340 -160q-161 0 -256.5 115.5t-95.5 310.5zM455 422q0 -111 47.5 -175.5t130.5 -64.5q86 0 161.5 65.5t119.5 176.5t44 238 q0 107 -48.5 170t-131.5 63t-158 -66t-120 -175.5t-45 -231.5z" />
<glyph unicode="e" d="M131 377q0 155 63 318t162 266q72 75 186 119t234 44q229 0 342 -141q92 -119 92 -264q0 -124 -36 -256h-744q-6 -77 -6 -92q0 -86 53 -137.5t141 -51.5q74 0 136.5 35.5t93.5 93.5h282q-85 -171 -233 -264.5t-334 -93.5q-193 0 -312.5 117.5t-119.5 306.5zM467 653h451 q0 72 -5 97q-8 66 -55 105.5t-119 39.5q-62 0 -118.5 -27.5t-92.5 -76.5q-35 -43 -61 -138z" />
<glyph unicode="f" horiz-adv-x="681" d="M184 0l191 893h-158l41 190h156l28 134q31 143 115.5 209.5t235.5 66.5q61 0 157 -6l-45 -215q-68 8 -86 8q-76 0 -94 -88l-25 -109h170l-41 -190h-167l-191 -893h-287z" />
<glyph unicode="g" horiz-adv-x="1251" d="M53 -197q0 27 6 64h295l-2 -25q0 -46 49.5 -75t126.5 -29q113 0 195 62t104 163l33 150q-98 -91 -171.5 -125.5t-168.5 -34.5q-156 0 -257 110t-101 279q0 150 52.5 304.5t141.5 264.5q79 101 189.5 157t228.5 56q180 0 260 -188l37 170h272l-243 -1143 q-41 -196 -202.5 -302.5t-416.5 -106.5q-184 0 -293 53q-62 31 -98.5 83.5t-36.5 112.5zM455 412q0 -107 46 -168.5t126 -61.5q89 0 167.5 63t124.5 170t46 230q0 114 -51.5 182t-137.5 68q-82 0 -156.5 -67.5t-119.5 -179.5t-45 -236z" />
<glyph unicode="h" horiz-adv-x="1251" d="M137 0l318 1493h286l-118 -555q84 97 171 141.5t197 44.5q134 0 215.5 -74.5t81.5 -195.5q0 -54 -12 -113l-158 -741h-287l138 641q12 67 12 98q0 75 -37.5 115.5t-109.5 40.5q-100 0 -175.5 -74t-101.5 -198l-133 -623h-287z" />
<glyph unicode="i" horiz-adv-x="569" d="M137 0l236 1106h286l-235 -1106h-287zM399 1237l56 256h286l-55 -256h-287z" />
<glyph unicode="j" horiz-adv-x="569" d="M-88 -436l49 227q11 -8 51 -8q46 0 70.5 20.5t34.5 69.5l262 1233h287l-277 -1299q-28 -133 -119 -193t-266 -60q-56 0 -92 10zM406 1237l55 256h287l-56 -256h-286z" />
<glyph unicode="k" d="M121 0l317 1493h287l-174 -817l457 430h325l-475 -422l264 -684h-336l-161 489l-140 -127l-77 -362h-287z" />
<glyph unicode="l" horiz-adv-x="569" d="M137 0l318 1493h286l-317 -1493h-287z" />
<glyph unicode="m" horiz-adv-x="1820" d="M123 0l235 1106h285l-35 -166q91 101 170 142.5t180 41.5q95 0 163.5 -45.5t90.5 -122.5q85 88 172 128t191 40q138 0 214.5 -67.5t76.5 -190.5q0 -39 -17 -125l-157 -741h-287l147 696q11 53 11 84q0 56 -30.5 85.5t-88.5 29.5q-97 0 -163 -60.5t-89 -170.5l-141 -664 h-287l151 709q7 40 7 67q0 54 -34.5 86.5t-94.5 32.5q-89 0 -154 -62t-88 -169l-141 -664h-287z" />
<glyph unicode="n" horiz-adv-x="1251" d="M129 0l236 1106h286l-37 -168q83 98 171 142t202 44q137 0 219 -73.5t82 -196.5q0 -54 -12 -113l-158 -741h-287l138 641q12 71 12 100q0 75 -39 114.5t-113 39.5q-104 0 -179 -72.5t-101 -199.5l-133 -623h-287z" />
<glyph unicode="o" horiz-adv-x="1251" d="M168 362q0 132 44.5 272t117.5 238q91 122 224 187t292 65q211 0 331.5 -109t120.5 -300q0 -134 -44 -274t-117 -236q-190 -252 -525 -252q-204 0 -324 110.5t-120 298.5zM461 420q0 -109 55.5 -173.5t147.5 -64.5q80 0 148.5 46t115.5 132q78 137 78 295 q0 111 -55 175.5t-150 64.5q-91 0 -169.5 -64t-124.5 -173.5t-46 -237.5z" />
<glyph unicode="p" horiz-adv-x="1251" d="M23 -446l329 1552h287l-35 -164q139 182 344 182q164 0 260.5 -114.5t96.5 -309.5q0 -202 -80.5 -374t-219 -272.5t-300.5 -100.5q-108 0 -174.5 43t-98.5 135l-123 -577h-286zM504 414q0 -104 49 -168t129 -64q87 0 163.5 65.5t121.5 176.5t45 238q0 107 -49 170 t-132 63q-86 0 -162 -66t-120.5 -177t-44.5 -238z" />
<glyph unicode="q" horiz-adv-x="1251" d="M147 371q0 131 43.5 266t120.5 244q83 115 200 179t245 64q211 0 272 -182l35 164h287l-330 -1552h-287l123 577q-141 -178 -346 -178q-165 0 -264 114t-99 304zM440 414q0 -105 50 -168.5t133 -63.5q88 0 164.5 66t121.5 177t45 239q0 106 -49.5 168.5t-132.5 62.5 q-86 0 -163 -66.5t-123 -177.5t-46 -237z" />
<glyph unicode="r" horiz-adv-x="796" d="M129 0l236 1106h286l-47 -217q72 112 165.5 173.5t193.5 61.5q18 0 34 -2l-61 -291q-56 9 -86 9q-254 0 -309 -252l-125 -588h-287z" />
<glyph unicode="s" d="M123 260q0 23 8 62h281q9 -140 217 -140q94 0 153.5 31.5t59.5 81.5q0 35 -29.5 55t-126.5 51l-162 52q-136 45 -200 106t-64 148q0 76 40 157t106 140q135 120 387 120q194 0 303.5 -79t109.5 -218q0 -31 -10 -77h-276q6 27 6 38q0 51 -48 79t-133 28q-82 0 -131 -29.5 t-49 -79.5q0 -31 27.5 -50t105.5 -42l197 -57q128 -38 189 -100t61 -154q0 -197 -154.5 -313.5t-415.5 -116.5q-189 0 -303 67q-67 38 -108 104.5t-41 135.5z" />
<glyph unicode="t" horiz-adv-x="681" d="M207 129q0 36 10 84l143 680h-141l41 190h141l64 297h287l-64 -297h160l-41 -190h-160l-127 -602q-12 -52 -12 -70q0 -51 78 -51q24 0 67 6l-41 -201q-78 -22 -174 -22q-113 0 -172 45t-59 131z" />
<glyph unicode="u" horiz-adv-x="1251" d="M180 223q0 50 13 113l163 770h287l-143 -670q-13 -64 -13 -100q0 -154 156 -154q100 0 174.5 74t100.5 199l139 651h286l-235 -1106h-287l31 139q-83 -98 -171 -142t-202 -44q-135 0 -217 73.5t-82 196.5z" />
<glyph unicode="v" d="M264 1106h303l62 -809l401 809h303l-616 -1106h-301z" />
<glyph unicode="w" horiz-adv-x="1593" d="M246 1106h297l10 -774l326 774h295v-774l333 774h297l-540 -1106h-297l-9 778l-340 -778h-296z" />
<glyph unicode="x" d="M33 0l477 561l-227 545h344l104 -334l252 334h344l-485 -545l252 -561h-344l-121 344l-252 -344h-344z" />
<glyph unicode="y" d="M76 -440l47 223q23 -4 57 -4q106 0 169 51.5t63 138.5l-2 31l-156 1106h315l74 -805l399 805h295l-733 -1307q-55 -99 -98 -143t-109 -70q-96 -35 -231 -35q-49 0 -90 9z" />
<glyph unicode="z" horiz-adv-x="1024" d="M43 0l49 231l684 643h-510l49 232h863l-50 -232l-679 -643h561l-49 -231h-918z" />
<glyph unicode="{" horiz-adv-x="796" d="M172 457l41 188h8h25q136 0 160 129l92 432q26 135 107.5 209.5t205.5 77.5h156l-43 -203h-76q-59 -2 -82 -24.5t-35 -91.5l-84 -400q-25 -111 -80.5 -161t-167.5 -62q61 -10 93 -25q32 -14 50.5 -44.5t18.5 -71.5q0 -32 -10 -84l-86 -400q-10 -58 -10 -82q0 -51 80 -51 h71l-43 -203h-157q-89 0 -144 56.5t-55 148.5q0 46 8 82l92 430q10 52 10 70q0 37 -29 57.5t-81 20.5h-27z" />
<glyph unicode="|" horiz-adv-x="573" d="M117 -410l405 1903h164l-405 -1903h-164z" />
<glyph unicode="}" horiz-adv-x="796" d="M59 -410l43 203h78q58 1 81.5 24.5t35.5 92.5l84 399q25 111 80.5 161t167.5 62q-59 9 -92 25q-32 14 -51 45t-19 72q0 32 10 84l86 399q10 58 10 82q0 51 -79 51h-74l43 203h160q89 0 143.5 -56.5t54.5 -148.5q0 -46 -8 -82l-92 -430q-10 -52 -10 -69q0 -37 29 -57.5 t81 -20.5h29l8 -2l-41 -189h-8h-27q-135 0 -159 -129l-93 -432q-26 -135 -107.5 -209.5t-205.5 -77.5h-158z" />
<glyph unicode="~" horiz-adv-x="1196" d="M199 598q79 297 325 297q96 0 156 -51l100 -86q32 -29 56.5 -40t58.5 -11q58 0 86.5 28.5t50.5 106.5h158q-35 -146 -118 -222.5t-206 -76.5q-95 0 -157 53l-99 86q-54 49 -114 49q-58 0 -87 -28t-51 -105h-159z" />
<glyph unicode="&#xa1;" horiz-adv-x="681" d="M53 -381l92 430l220 633h137l-49 -633l-93 -430h-307zM307 807l64 299h307l-64 -299h-307z" />
<glyph unicode="&#xa2;" d="M162 352q0 129 48 277.5t124 257.5q150 214 420 235l39 176h135l-39 -178q69 -8 112 -24q100 -40 162 -127.5t62 -188.5q0 -23 -8 -88h-275q0 93 -22 136.5t-80 62.5l-150 -709q63 15 106.5 62.5t80.5 138.5h274q-56 -188 -193 -303.5t-317 -124.5l-43 -209h-135l45 213 q-71 12 -117 31q-104 40 -166.5 139.5t-62.5 222.5zM455 391q0 -85 22.5 -130.5t79.5 -70.5l148 701q-80 -21 -127 -86q-55 -75 -89 -189t-34 -225z" />
<glyph unicode="&#xa3;" d="M100 164q160 94 227.5 179t67.5 192q0 41 -10 112h-182l24 113h123q-33 94 -43 135t-10 84q0 87 43.5 177t118.5 159q161 149 411 149q207 0 312.5 -91t105.5 -269q0 -45 -8 -113h-268q2 23 2 53q0 191 -191 191q-94 0 -163.5 -65t-69.5 -154q0 -32 24 -123 q29 -114 33 -133h285l-25 -113h-250q5 -31 5 -51q0 -112 -69.5 -205.5t-240.5 -214.5q102 45 138.5 56.5t82.5 11.5q39 0 134 -19q85 -16 135 -16q107 0 233 59l37 -223q-97 -51 -169 -71.5t-148 -20.5q-73 0 -197 31q-120 30 -195 30q-57 0 -108.5 -12.5t-126.5 -44.5z" />
<glyph unicode="&#xa4;" d="M135 346l193 158q-23 70 -23 129q0 79 29.5 159t83.5 144l-127 162l170 139l125 -158q118 64 241 64q114 0 199 -62l182 150l111 -141l-186 -154q20 -70 20 -123q0 -163 -115 -309l123 -156l-170 -139l-121 153q-73 -36 -118 -48.5t-103 -12.5q-59 0 -119 18t-92 46 l-192 -160zM510 676q0 -78 49 -126t127 -48q110 0 186 77t76 189q0 77 -49 125.5t-127 48.5q-111 0 -186.5 -76t-75.5 -190z" />
<glyph unicode="&#xa5;" d="M219 369l27 123h299l22 106h-299l25 123h287l-263 721h285l174 -520l383 520h279l-547 -721h285l-27 -123h-295l-23 -106h295l-26 -123h-295l-78 -369h-287l78 369h-299z" />
<glyph unicode="&#xa6;" horiz-adv-x="573" d="M117 -410l170 797h164l-170 -797h-164zM352 696l170 797h164l-170 -797h-164z" />
<glyph unicode="&#xa7;" d="M115 -121q0 53 18 121h268q-6 -52 -6 -70q0 -112 133 -112q78 0 131.5 43.5t53.5 107.5q0 41 -18.5 62.5t-94.5 68.5l-307 205q-53 35 -82 88t-29 113q0 137 80 229q33 37 67 64t113 78q-77 80 -77 196q0 73 35 146.5t98 130.5q140 131 372 131q165 0 258 -70t93 -194 q0 -27 -15 -103h-260q2 14 2 37q0 59 -33 90t-94 31q-66 0 -109.5 -36t-43.5 -91q0 -34 33.5 -69.5t111.5 -82.5l229 -143q142 -88 142 -232q0 -139 -62.5 -223t-203.5 -137q98 -79 98 -203q0 -149 -111 -282q-156 -185 -430 -185q-166 0 -263 78.5t-97 212.5zM449 616 q0 -34 17.5 -59t61.5 -51l256 -158q72 34 103 70.5t31 87.5q0 37 -20.5 63t-74.5 58l-260 155q-114 -60 -114 -166z" />
<glyph unicode="&#xa8;" horiz-adv-x="681" d="M301 1272l53 246h226l-54 -246h-225zM682 1272l53 246h226l-54 -246h-225z" />
<glyph unicode="&#xa9;" horiz-adv-x="1509" d="M111 575q0 179 81.5 353.5t215 304t312.5 209.5t365 80q135 0 252 -46.5t199.5 -128.5t130 -197.5t47.5 -248.5q0 -181 -82 -355t-215.5 -303t-313.5 -208.5t-366 -79.5q-179 0 -322 80t-223.5 221.5t-80.5 318.5zM274 604q0 -218 140.5 -360t357.5 -142q148 0 291 65 t249.5 171t172 248t65.5 288q0 217 -140.5 358.5t-356.5 141.5q-197 0 -378 -108.5t-291 -287.5t-110 -374zM475 588q0 116 38.5 231.5t104.5 200.5q151 192 392 192q142 0 228.5 -71.5t86.5 -190.5q0 -14 -6 -67h-184q0 83 -37 121t-119 38q-140 0 -229 -129 q-39 -59 -61.5 -136.5t-22.5 -151.5q0 -94 45 -143.5t131 -49.5q178 0 235 176h189q-43 -161 -167.5 -253.5t-299.5 -92.5q-151 0 -237.5 87t-86.5 239z" />
<glyph unicode="&#xaa;" horiz-adv-x="757" d="M197 537l34 163h580l-33 -163h-581zM274 948q0 97 68 166t182 86l70 12q63 9 78.5 12t36.5 13q41 20 41 66q0 51 -91 51q-60 0 -91 -20.5t-46 -69.5h-162q52 229 330 229q110 0 172 -39t62 -108q0 -24 -6 -58l-80 -368q-2 -8 -2 -27q0 -24 24 -55l-4 -21h-188 q-9 18 -9 33q0 8 5 33q-55 -51 -106.5 -73t-113.5 -22q-78 0 -124 43.5t-46 116.5zM453 989q0 -61 86 -61q63 0 107 41t59 114l10 47q-18 -8 -33 -12q-1 0 -25 -4l-20 -2l-62 -12q-58 -9 -90 -38.5t-32 -72.5z" />
<glyph unicode="&#xab;" d="M276 446l50 234l407 305l-51 -240l-246 -182l168 -182l-49 -234zM713 446l49 234l407 305l-51 -240l-246 -182l168 -182l-49 -234z" />
<glyph unicode="&#xac;" horiz-adv-x="1196" d="M211 524l51 246h1032l-125 -594h-243l73 348h-788z" />
<glyph unicode="&#xad;" horiz-adv-x="681" d="M143 424l60 276h557l-60 -276h-557z" />
<glyph unicode="&#xae;" horiz-adv-x="1509" d="M113 575q0 144 52 286t145.5 259.5t214 208.5t266.5 142t294 51q135 0 252 -47t199.5 -129t130 -197.5t47.5 -247.5q0 -180 -82 -354.5t-215 -303.5t-312.5 -208.5t-365.5 -79.5q-179 0 -322 80t-223.5 221.5t-80.5 318.5zM276 604q0 -217 140.5 -359.5t355.5 -142.5 q148 0 291 65t249.5 171t172 248t65.5 288q0 217 -140.5 358.5t-356.5 141.5q-147 0 -290 -65t-249.5 -170t-172 -247t-65.5 -288zM457 287l192 905h488q202 0 202 -182q0 -198 -198 -287q43 -20 61.5 -43t18.5 -57q0 -44 -31 -224l-2 -26q0 -27 24 -43l-10 -43h-209 q-10 34 -10 57q0 39 29 162q12 52 12 63q0 72 -109 72h-186l-76 -354h-196zM764 807h209q95 0 127 43q14 17 23.5 49.5t9.5 61.5q0 37 -25.5 52t-87.5 15h-209z" />
<glyph unicode="&#xaf;" horiz-adv-x="681" d="M307 1315l35 164h614l-34 -164h-615z" />
<glyph unicode="&#xb0;" horiz-adv-x="819" d="M336 1096q0 128 91 218.5t218 90.5q129 0 220 -90.5t91 -218.5q0 -130 -91 -221t-222 -91q-126 0 -216.5 92t-90.5 220zM465 1094q0 -73 53 -127t125 -54q77 0 130.5 53.5t53.5 129.5q0 75 -53 127.5t-127 52.5q-75 0 -128.5 -53.5t-53.5 -128.5z" />
<glyph unicode="&#xb1;" horiz-adv-x="1196" d="M102 0l52 244h991l-51 -244h-992zM248 680l51 246h373l80 370h243l-80 -370h375l-51 -246h-375l-71 -332h-244l72 332h-373z" />
<glyph unicode="&#xb2;" horiz-adv-x="681" d="M139 582q32 124 92.5 197.5t194.5 150.5q109 64 152.5 93t72.5 58q66 66 66 148q0 44 -28 69t-79 25q-66 0 -105 -46.5t-48 -135.5h-187q25 160 119 244.5t248 84.5q127 0 198.5 -57t71.5 -158q0 -118 -82 -215q-59 -65 -194 -145q-106 -64 -146.5 -93.5t-60.5 -56.5h377 l-35 -163h-627z" />
<glyph unicode="&#xb3;" horiz-adv-x="681" d="M186 774q0 24 9 74h186q-4 -16 -4 -37q0 -96 115 -96q62 0 105.5 44t43.5 107q0 53 -37 77t-119 24q-16 0 -26 -2l26 129q62 2 94 10t56 29q49 43 49 108q0 37 -25.5 59.5t-66.5 22.5q-60 0 -90 -33.5t-49 -120.5h-179q31 157 115 229t238 72q125 0 193.5 -49.5 t68.5 -140.5q0 -141 -146 -231q88 -55 88 -150q0 -152 -104.5 -248t-271.5 -96q-128 0 -198.5 57.5t-70.5 161.5z" />
<glyph unicode="&#xb4;" horiz-adv-x="681" d="M506 1243l209 307h258l-324 -307h-143z" />
<glyph unicode="&#xb5;" horiz-adv-x="1251" d="M23 -451l331 1557h287l-145 -682q-15 -73 -15 -94q0 -59 42 -93t114 -34q103 0 176.5 57t93.5 154l148 692h286l-170 -799q-14 -66 -14 -102q0 -47 43 -47q16 0 43 8l-37 -176q-73 -37 -151 -37q-71 0 -108 25t-62 88q-74 -63 -137.5 -88t-151.5 -25q-69 0 -113 17.5 t-82 60.5l-102 -482h-276z" />
<glyph unicode="&#xb6;" d="M248 891q0 118 47 231t135 207q154 164 352 164h619l-31 -150h-90l-369 -1734h-200l368 1734h-127l-368 -1734h-201l199 938q-154 7 -244 100t-90 244z" />
<glyph unicode="&#xb7;" horiz-adv-x="569" d="M293 373l45 205h215l-45 -205h-215z" />
<glyph unicode="&#xb8;" horiz-adv-x="681" d="M-27 -391l62 104q74 -35 116 -48t85 -13q59 0 99 26t40 64q0 31 -25 49.5t-65 18.5q-43 0 -109 -27l139 217h103l-84 -127q50 12 88 12q62 0 96.5 -30.5t34.5 -85.5q0 -100 -84 -160t-223 -60q-68 0 -126 13t-147 47z" />
<glyph unicode="&#xb9;" horiz-adv-x="681" d="M315 1174l27 124q237 0 311 154h129l-184 -870h-192l126 592h-217z" />
<glyph unicode="&#xba;" horiz-adv-x="747" d="M188 537l35 163h617l-35 -163h-617zM287 1036q0 196 116 326.5t291 130.5q127 0 199 -65t72 -179q0 -81 -27.5 -165.5t-71.5 -141.5q-115 -151 -315 -151q-122 0 -193 65.5t-71 179.5zM465 1065q0 -66 32.5 -105.5t86.5 -39.5q83 0 142.5 84.5t59.5 203.5q0 68 -32.5 107 t-87.5 39q-83 0 -142 -85t-59 -204z" />
<glyph unicode="&#xbb;" d="M211 147l51 240l246 182l-168 183l49 233l279 -299l-50 -235zM635 147l51 240l246 182l-168 183l49 233l279 -299l-50 -235z" />
<glyph unicode="&#xbc;" horiz-adv-x="1708" d="M299 1174l27 124q237 0 311 154h129l-184 -870h-193l127 592h-217zM319 -41l1190 1505h174l-1189 -1505h-175zM1038 190l33 148l445 532h221l-113 -530h94l-32 -150h-95l-39 -190h-192l41 190h-363zM1219 340h215l71 340z" />
<glyph unicode="&#xbd;" horiz-adv-x="1708" d="M285 1174l26 124q238 0 312 154h129l-185 -870h-192l127 592h-217zM299 -41l1190 1505h174l-1190 -1505h-174zM1059 0q32 125 93 198.5t196 149.5q109 66 152 95t71 57q65 62 65 147q0 44 -27.5 69t-78.5 25q-65 0 -104.5 -46.5t-49.5 -135.5h-186q26 160 119.5 245 t246.5 85q128 0 199.5 -57t71.5 -158q0 -118 -82 -215q-59 -65 -193 -146q-105 -63 -146 -92t-63 -57h377l-34 -164h-627z" />
<glyph unicode="&#xbe;" horiz-adv-x="1708" d="M211 774q0 30 8 74h187q-5 -20 -5 -37q0 -96 115 -96q62 0 106 44t44 107q0 53 -37 77t-119 24q-17 0 -27 -2l27 129q62 2 93.5 10t55.5 29q50 44 50 108q0 37 -26 59.5t-67 22.5q-60 0 -90 -33.5t-49 -120.5h-178q31 157 115 229t237 72q125 0 193.5 -49.5t68.5 -140.5 q0 -142 -145 -231q88 -55 88 -150q0 -152 -105 -248t-272 -96q-128 0 -198 57.5t-70 161.5zM360 -41l1190 1505h174l-1189 -1505h-175zM1053 190l30 148l447 532h221l-113 -530h95l-33 -150h-94l-41 -190h-191l41 190h-362zM1231 340h217l70 340z" />
<glyph unicode="&#xbf;" horiz-adv-x="1251" d="M106 -53q0 145 76 274q34 56 96 109.5t171 120.5q104 63 134 102.5t52 140.5h250q-10 -118 -76 -211t-211 -194q-84 -58 -113.5 -85t-52.5 -67q-33 -64 -33 -123q0 -78 53 -128t136 -50q103 0 175 75.5t97 209.5h279q-29 -130 -66.5 -212.5t-97.5 -148.5 q-163 -178 -428 -178q-203 0 -322 98.5t-119 266.5zM627 807l63 299h307l-63 -299h-307z" />
<glyph unicode="&#xc0;" horiz-adv-x="1478" d="M53 0l834 1493h354l199 -1493h-314l-36 301h-558l-165 -301h-314zM674 557h387l-72 580zM834 1917h243l92 -307h-129z" />
<glyph unicode="&#xc1;" horiz-adv-x="1478" d="M53 0l834 1493h354l199 -1493h-314l-36 301h-558l-165 -301h-314zM674 557h387l-72 580zM995 1610l209 307h258l-323 -307h-144z" />
<glyph unicode="&#xc2;" horiz-adv-x="1478" d="M53 0l834 1493h354l199 -1493h-314l-36 301h-558l-165 -301h-314zM674 557h387l-72 580zM762 1616l285 301h221l145 -301h-160l-125 199l-210 -199h-156z" />
<glyph unicode="&#xc3;" horiz-adv-x="1478" d="M53 0l834 1493h354l199 -1493h-314l-36 301h-558l-165 -301h-314zM674 557h387l-72 580zM729 1645q37 117 100.5 179t147.5 62q40 0 65 -6.5t80 -30.5l103 -43q42 -18 67 -18q69 0 111 102h110q-31 -112 -83 -166q-81 -84 -189 -84q-52 0 -104 23l-103 51q-60 31 -90 31 q-54 0 -104 -100h-111z" />
<glyph unicode="&#xc4;" horiz-adv-x="1478" d="M53 0l834 1493h354l199 -1493h-314l-36 301h-558l-165 -301h-314zM674 557h387l-72 580zM791 1638l53 246h225l-53 -246h-225zM1171 1638l54 246h225l-53 -246h-226z" />
<glyph unicode="&#xc5;" horiz-adv-x="1478" d="M53 0l834 1493h354l199 -1493h-314l-36 301h-558l-165 -301h-314zM674 557h387l-72 580zM928 1729q0 88 70 155.5t159 67.5q64 0 106 -41.5t42 -104.5q0 -87 -70 -155t-160 -68q-64 0 -105.5 41.5t-41.5 104.5zM1028 1751q0 -28 19.5 -46.5t50.5 -18.5q41 0 73.5 31 t32.5 69q0 28 -19 45.5t-48 17.5q-42 0 -75.5 -30t-33.5 -68z" />
<glyph unicode="&#xc6;" horiz-adv-x="2048" d="M2 0l860 1493h1399l-53 -256h-752l-74 -338h695l-54 -256h-694l-82 -387h791l-56 -256h-1097l65 311h-448l-174 -311h-326zM635 567h371l143 670h-135z" />
<glyph unicode="&#xc7;" horiz-adv-x="1478" d="M219 481q0 198 63.5 392t172.5 329q125 155 286.5 235.5t350.5 80.5q238 0 385 -119t147 -312q0 -29 -8 -100h-289q0 60 -7.5 94.5t-27.5 65.5q-64 108 -235 108q-246 0 -387 -223q-69 -108 -107.5 -236t-38.5 -253q0 -328 299 -328q149 0 254.5 77t149.5 218h293 q-63 -256 -258 -405.5t-465 -151.5l-54 -82q43 14 88 14q62 0 97 -30.5t35 -85.5q0 -100 -84.5 -160t-225.5 -60q-69 0 -126 12.5t-146 47.5l61 104q73 -35 117 -48t88 -13q57 0 97 26t40 64q0 31 -25 49.5t-65 18.5q-44 0 -110 -27l112 172q-217 17 -347 160t-130 366z" />
<glyph unicode="&#xc8;" horiz-adv-x="1366" d="M162 0l317 1493h1082l-56 -256h-774l-72 -338h715l-53 -256h-715l-82 -387h809l-55 -256h-1116zM819 1917h244l92 -307h-129z" />
<glyph unicode="&#xc9;" horiz-adv-x="1366" d="M162 0l317 1493h1082l-56 -256h-774l-72 -338h715l-53 -256h-715l-82 -387h809l-55 -256h-1116zM915 1610l209 307h258l-323 -307h-144z" />
<glyph unicode="&#xca;" horiz-adv-x="1366" d="M162 0l317 1493h1082l-56 -256h-774l-72 -338h715l-53 -256h-715l-82 -387h809l-55 -256h-1116zM727 1616l285 301h219l147 -301h-159l-125 199l-211 -199h-156z" />
<glyph unicode="&#xcb;" horiz-adv-x="1366" d="M162 0l317 1493h1082l-56 -256h-774l-72 -338h715l-53 -256h-715l-82 -387h809l-55 -256h-1116zM750 1638l53 246h225l-53 -246h-225zM1130 1638l54 246h225l-53 -246h-226z" />
<glyph unicode="&#xcc;" horiz-adv-x="569" d="M129 0l317 1493h308l-318 -1493h-307zM371 1917h245l91 -307h-129z" />
<glyph unicode="&#xcd;" horiz-adv-x="569" d="M129 0l317 1493h308l-318 -1493h-307zM535 1610l208 307h258l-323 -307h-143z" />
<glyph unicode="&#xce;" horiz-adv-x="569" d="M129 0l317 1493h308l-318 -1493h-307zM305 1616l285 301h221l145 -301h-159l-125 199l-211 -199h-156z" />
<glyph unicode="&#xcf;" horiz-adv-x="569" d="M129 0l317 1493h308l-318 -1493h-307zM330 1638l53 246h225l-53 -246h-225zM711 1638l53 246h225l-53 -246h-225z" />
<glyph unicode="&#xd0;" horiz-adv-x="1478" d="M150 698l34 164h156l135 631h584q278 0 404 -121.5t126 -390.5q0 -182 -59.5 -363t-169.5 -331q-113 -155 -254.5 -221t-364.5 -66h-583l149 698h-157zM520 256h275q134 0 217 48t149 163q53 91 88 232t35 262q0 276 -280 276h-277l-80 -375h357l-35 -164h-355z" />
<glyph unicode="&#xd1;" horiz-adv-x="1478" d="M139 0l318 1493h307l393 -1055l223 1055h291l-317 -1493h-303l-394 1071l-227 -1071h-291zM725 1645q35 117 99 179t149 62q40 0 65 -6.5t80 -30.5l103 -43q42 -18 65 -18q71 0 113 102h110q-31 -110 -84 -166q-81 -84 -188 -84q-52 0 -104 23l-103 51q-60 31 -90 31 q-54 0 -104 -100h-111z" />
<glyph unicode="&#xd2;" horiz-adv-x="1593" d="M217 535q0 177 68 359.5t188 324.5q250 299 629 299q283 0 438.5 -154t155.5 -432q0 -182 -66 -360.5t-186 -317.5q-132 -157 -284.5 -229t-350.5 -72q-274 0 -433 156.5t-159 425.5zM522 578q0 -168 90 -265.5t246 -97.5q238 0 389 215q66 92 105 218t39 247 q0 169 -87 264.5t-241 95.5q-237 0 -393 -213q-68 -94 -108 -219.5t-40 -244.5zM922 1917h243l92 -307h-131z" />
<glyph unicode="&#xd3;" horiz-adv-x="1593" d="M217 535q0 177 68 359.5t188 324.5q250 299 629 299q283 0 438.5 -154t155.5 -432q0 -182 -66 -360.5t-186 -317.5q-132 -157 -284.5 -229t-350.5 -72q-274 0 -433 156.5t-159 425.5zM522 578q0 -168 90 -265.5t246 -97.5q238 0 389 215q66 92 105 218t39 247 q0 169 -87 264.5t-241 95.5q-237 0 -393 -213q-68 -94 -108 -219.5t-40 -244.5zM1032 1610l207 307h260l-323 -307h-144z" />
<glyph unicode="&#xd4;" horiz-adv-x="1593" d="M217 535q0 177 68 359.5t188 324.5q250 299 629 299q283 0 438.5 -154t155.5 -432q0 -182 -66 -360.5t-186 -317.5q-132 -157 -284.5 -229t-350.5 -72q-274 0 -433 156.5t-159 425.5zM522 578q0 -168 90 -265.5t246 -97.5q238 0 389 215q66 92 105 218t39 247 q0 169 -87 264.5t-241 95.5q-237 0 -393 -213q-68 -94 -108 -219.5t-40 -244.5zM823 1616l285 301h221l146 -301h-160l-125 199l-211 -199h-156z" />
<glyph unicode="&#xd5;" horiz-adv-x="1593" d="M217 535q0 177 68 359.5t188 324.5q250 299 629 299q283 0 438.5 -154t155.5 -432q0 -182 -66 -360.5t-186 -317.5q-132 -157 -284.5 -229t-350.5 -72q-274 0 -433 156.5t-159 425.5zM522 578q0 -168 90 -265.5t246 -97.5q238 0 389 215q66 92 105 218t39 247 q0 169 -87 264.5t-241 95.5q-237 0 -393 -213q-68 -94 -108 -219.5t-40 -244.5zM791 1645q35 117 98.5 179t148.5 62q40 0 64.5 -6t79.5 -31l102 -43q44 -18 68 -18q71 0 110 102h113q-19 -63 -37 -99.5t-47 -66.5q-84 -84 -191 -84q-54 0 -102 23l-104 51q-60 31 -90 31 q-54 0 -103 -100h-110z" />
<glyph unicode="&#xd6;" horiz-adv-x="1593" d="M217 535q0 177 68 359.5t188 324.5q250 299 629 299q283 0 438.5 -154t155.5 -432q0 -182 -66 -360.5t-186 -317.5q-132 -157 -284.5 -229t-350.5 -72q-274 0 -433 156.5t-159 425.5zM522 578q0 -168 90 -265.5t246 -97.5q238 0 389 215q66 92 105 218t39 247 q0 169 -87 264.5t-241 95.5q-237 0 -393 -213q-68 -94 -108 -219.5t-40 -244.5zM848 1638l53 246h225l-53 -246h-225zM1229 1638l53 246h225l-53 -246h-225z" />
<glyph unicode="&#xd7;" horiz-adv-x="1196" d="M209 211l317 262l-207 262l209 174l207 -264l322 264l135 -172l-322 -264l207 -264l-209 -172l-206 264l-318 -262z" />
<glyph unicode="&#xd8;" horiz-adv-x="1593" d="M70 14l227 203q-74 136 -74 322q0 177 68 358t188 322q255 299 641 299q291 0 443 -168l206 184l86 -92l-221 -199q70 -143 70 -317t-68 -353.5t-188 -320.5q-252 -299 -639 -299q-291 0 -438 162l-217 -195zM528 573q0 -61 13 -137l790 705q-89 114 -264 114 q-238 0 -391 -213q-68 -96 -108 -221.5t-40 -247.5zM602 322q90 -107 260 -107q235 0 389 213q69 96 108.5 220.5t39.5 250.5q0 71 -10 125z" />
<glyph unicode="&#xd9;" horiz-adv-x="1478" d="M244 344q0 65 22 178l207 971h307l-215 -1012q-10 -55 -10 -92q0 -83 65.5 -128.5t184.5 -45.5q141 0 221 64t109 202l215 1012h307l-215 -1012q-28 -128 -80 -218t-139 -159q-193 -151 -473 -151q-233 0 -369.5 105.5t-136.5 285.5zM881 1917h243l93 -307h-130z" />
<glyph unicode="&#xda;" horiz-adv-x="1478" d="M244 344q0 65 22 178l207 971h307l-215 -1012q-10 -55 -10 -92q0 -83 65.5 -128.5t184.5 -45.5q141 0 221 64t109 202l215 1012h307l-215 -1012q-28 -128 -80 -218t-139 -159q-193 -151 -473 -151q-233 0 -369.5 105.5t-136.5 285.5zM950 1610l209 307h258l-323 -307 h-144z" />
<glyph unicode="&#xdb;" horiz-adv-x="1478" d="M244 344q0 65 22 178l207 971h307l-215 -1012q-10 -55 -10 -92q0 -83 65.5 -128.5t184.5 -45.5q141 0 221 64t109 202l215 1012h307l-215 -1012q-28 -128 -80 -218t-139 -159q-193 -151 -473 -151q-233 0 -369.5 105.5t-136.5 285.5zM772 1616l285 301h221l145 -301h-159 l-125 199l-211 -199h-156z" />
<glyph unicode="&#xdc;" horiz-adv-x="1478" d="M244 344q0 65 22 178l207 971h307l-215 -1012q-10 -55 -10 -92q0 -83 65.5 -128.5t184.5 -45.5q141 0 221 64t109 202l215 1012h307l-215 -1012q-28 -128 -80 -218t-139 -159q-193 -151 -473 -151q-233 0 -369.5 105.5t-136.5 285.5zM784 1638l54 246h225l-53 -246h-226z M1165 1638l54 246h225l-53 -246h-226z" />
<glyph unicode="&#xdd;" horiz-adv-x="1366" d="M373 1493h342l168 -645l424 645h342l-672 -940l-119 -553h-307l119 553zM901 1610l209 307h258l-324 -307h-143z" />
<glyph unicode="&#xde;" horiz-adv-x="1366" d="M156 0l317 1493h307l-53 -246h326q101 0 169 -18.5t124 -61.5q63 -47 97 -116.5t34 -149.5q0 -118 -49 -239t-132 -209t-175 -127t-214 -39h-383l-61 -287h-307zM578 543h313q81 0 136 25t93 79q22 32 36.5 84.5t14.5 97.5q0 73 -50.5 117.5t-133.5 44.5h-313z" />
<glyph unicode="&#xdf;" horiz-adv-x="1251" d="M137 0l244 1143q34 160 182 255t363 95q187 0 300 -82t113 -219q0 -121 -67 -215.5t-182 -134.5q95 -22 147.5 -94t52.5 -181q0 -83 -31.5 -181t-82.5 -175q-85 -125 -204 -191.5t-257 -66.5q-48 0 -140 14l50 230h28q85 2 136 18t98 57q52 45 81 109.5t29 132.5 q0 201 -231 201h-31l41 194q121 0 189 56q38 29 60 74t22 91q0 63 -48.5 98.5t-134.5 35.5q-172 0 -207 -164l-233 -1100h-287z" />
<glyph unicode="&#xe0;" d="M102 221q0 92 47.5 179.5t129.5 146.5q93 67 237 90l119 18q110 15 133.5 20.5t54.5 22.5q31 15 50.5 46t19.5 63q0 46 -36 67t-114 21q-100 0 -151.5 -34.5t-77.5 -119.5h-268q43 200 173.5 291.5t371.5 91.5q213 0 309 -77q37 -29 60.5 -77.5t23.5 -92.5q0 -33 -13 -93 l-129 -614q-6 -24 -6 -43q0 -43 43 -92l-8 -35h-313q-15 34 -15 55q0 20 7 56q-92 -84 -172 -121t-168 -37q-136 0 -211 63q-45 37 -71 92t-26 113zM395 285q0 -103 150 -103q104 0 175 68t99 194l17 78q-27 -15 -54 -20q-4 -1 -18.5 -3.5t-24.5 -4.5l-32 -7l-103 -16 q-100 -17 -154.5 -65.5t-54.5 -120.5zM621 1550h243l92 -307h-129z" />
<glyph unicode="&#xe1;" d="M102 221q0 92 47.5 179.5t129.5 146.5q93 67 237 90l119 18q110 15 133.5 20.5t54.5 22.5q31 15 50.5 46t19.5 63q0 46 -36 67t-114 21q-100 0 -151.5 -34.5t-77.5 -119.5h-268q43 200 173.5 291.5t371.5 91.5q213 0 309 -77q37 -29 60.5 -77.5t23.5 -92.5q0 -33 -13 -93 l-129 -614q-6 -24 -6 -43q0 -43 43 -92l-8 -35h-313q-15 34 -15 55q0 20 7 56q-92 -84 -172 -121t-168 -37q-136 0 -211 63q-45 37 -71 92t-26 113zM395 285q0 -103 150 -103q104 0 175 68t99 194l17 78q-27 -15 -54 -20q-4 -1 -18.5 -3.5t-24.5 -4.5l-32 -7l-103 -16 q-100 -17 -154.5 -65.5t-54.5 -120.5zM735 1243l209 307h258l-323 -307h-144z" />
<glyph unicode="&#xe2;" d="M102 221q0 92 47.5 179.5t129.5 146.5q93 67 237 90l119 18q110 15 133.5 20.5t54.5 22.5q31 15 50.5 46t19.5 63q0 46 -36 67t-114 21q-100 0 -151.5 -34.5t-77.5 -119.5h-268q43 200 173.5 291.5t371.5 91.5q213 0 309 -77q37 -29 60.5 -77.5t23.5 -92.5q0 -33 -13 -93 l-129 -614q-6 -24 -6 -43q0 -43 43 -92l-8 -35h-313q-15 34 -15 55q0 20 7 56q-92 -84 -172 -121t-168 -37q-136 0 -211 63q-45 37 -71 92t-26 113zM395 285q0 -103 150 -103q104 0 175 68t99 194l17 78q-27 -15 -54 -20q-4 -1 -18.5 -3.5t-24.5 -4.5l-32 -7l-103 -16 q-100 -17 -154.5 -65.5t-54.5 -120.5zM506 1249l285 301h221l145 -301h-160l-125 199l-210 -199h-156z" />
<glyph unicode="&#xe3;" d="M102 221q0 92 47.5 179.5t129.5 146.5q93 67 237 90l119 18q110 15 133.5 20.5t54.5 22.5q31 15 50.5 46t19.5 63q0 46 -36 67t-114 21q-100 0 -151.5 -34.5t-77.5 -119.5h-268q43 200 173.5 291.5t371.5 91.5q213 0 309 -77q37 -29 60.5 -77.5t23.5 -92.5q0 -33 -13 -93 l-129 -614q-6 -24 -6 -43q0 -43 43 -92l-8 -35h-313q-15 34 -15 55q0 20 7 56q-92 -84 -172 -121t-168 -37q-136 0 -211 63q-45 37 -71 92t-26 113zM395 285q0 -103 150 -103q104 0 175 68t99 194l17 78q-27 -15 -54 -20q-4 -1 -18.5 -3.5t-24.5 -4.5l-32 -7l-103 -16 q-100 -17 -154.5 -65.5t-54.5 -120.5zM469 1278q35 115 100 177.5t148 62.5q39 0 67.5 -7t77.5 -28l103 -43q5 -2 13 -6t10.5 -5t8 -3.5t7.5 -3l6 -1.5t7 -1t6.5 -0.5t8.5 -0.5q68 0 111 105h110q-31 -110 -84 -166q-81 -84 -188 -84q-55 0 -104 22l-103 52q-62 28 -90 28 q-54 0 -104 -98h-111z" />
<glyph unicode="&#xe4;" d="M102 221q0 92 47.5 179.5t129.5 146.5q93 67 237 90l119 18q110 15 133.5 20.5t54.5 22.5q31 15 50.5 46t19.5 63q0 46 -36 67t-114 21q-100 0 -151.5 -34.5t-77.5 -119.5h-268q43 200 173.5 291.5t371.5 91.5q213 0 309 -77q37 -29 60.5 -77.5t23.5 -92.5q0 -33 -13 -93 l-129 -614q-6 -24 -6 -43q0 -43 43 -92l-8 -35h-313q-15 34 -15 55q0 20 7 56q-92 -84 -172 -121t-168 -37q-136 0 -211 63q-45 37 -71 92t-26 113zM395 285q0 -103 150 -103q104 0 175 68t99 194l17 78q-27 -15 -54 -20q-4 -1 -18.5 -3.5t-24.5 -4.5l-32 -7l-103 -16 q-100 -17 -154.5 -65.5t-54.5 -120.5zM530 1272l54 246h225l-53 -246h-226zM911 1272l54 246h225l-53 -246h-226z" />
<glyph unicode="&#xe5;" d="M102 221q0 92 47.5 179.5t129.5 146.5q93 67 237 90l119 18q110 15 133.5 20.5t54.5 22.5q31 15 50.5 46t19.5 63q0 46 -36 67t-114 21q-100 0 -151.5 -34.5t-77.5 -119.5h-268q43 200 173.5 291.5t371.5 91.5q213 0 309 -77q37 -29 60.5 -77.5t23.5 -92.5q0 -33 -13 -93 l-129 -614q-6 -24 -6 -43q0 -43 43 -92l-8 -35h-313q-15 34 -15 55q0 20 7 56q-92 -84 -172 -121t-168 -37q-136 0 -211 63q-45 37 -71 92t-26 113zM395 285q0 -103 150 -103q104 0 175 68t99 194l17 78q-27 -15 -54 -20q-4 -1 -18.5 -3.5t-24.5 -4.5l-32 -7l-103 -16 q-100 -17 -154.5 -65.5t-54.5 -120.5zM674 1360q0 88 70 155.5t159 67.5q64 0 106 -41t42 -104q0 -88 -70.5 -156t-159.5 -68q-64 0 -105.5 41.5t-41.5 104.5zM774 1382q0 -28 19.5 -46.5t50.5 -18.5q41 0 73.5 31t32.5 69q0 28 -19 46t-48 18q-41 0 -75 -30.5t-34 -68.5z " />
<glyph unicode="&#xe6;" horiz-adv-x="1820" d="M111 217q0 95 46 182.5t128 145.5q97 69 239 92l117 18q110 15 134 20.5t56 22.5q31 15 50.5 46t19.5 63q0 46 -35.5 67t-111.5 21q-100 0 -153 -35t-79 -119h-268q20 97 49 155.5t80 102.5q140 125 420 125q233 0 330 -100q142 100 337 100q223 0 336 -141 q43 -54 67.5 -124t24.5 -140q0 -124 -36 -256h-742q-14 -62 -14 -105q0 -79 54.5 -127.5t142.5 -48.5q75 0 138.5 35t94.5 94h283q-82 -164 -238 -261t-340 -97q-135 0 -231.5 53.5t-139.5 151.5q-107 -116 -203.5 -160.5t-238.5 -44.5q-149 0 -233 70t-84 194zM403 285 q0 -103 146 -103q107 0 178.5 67t99.5 193l17 78q-28 -14 -53 -20q-4 0 -18.5 -2.5t-24.5 -3.5l-33 -7l-103 -16q-101 -17 -155 -65.5t-54 -120.5zM1163 653h443v56q0 90 -45 138t-129 48q-204 0 -269 -242z" />
<glyph unicode="&#xe7;" d="M158 354q0 145 58 307t149 269q161 194 450 194q103 0 177 -27t132 -85q99 -99 99 -232q0 -14 -9 -88h-274q-2 97 -22 135q-43 68 -146 68q-85 0 -144 -41.5t-102 -132.5q-75 -150 -75 -328q0 -107 45 -159t137 -52q83 0 138.5 46t102.5 155h275q-60 -201 -212 -318 t-347 -112l-53 -80q47 12 88 12q62 0 96.5 -30.5t34.5 -85.5q0 -100 -84.5 -160t-225.5 -60q-68 0 -125.5 13t-146.5 47l62 106q73 -37 115.5 -50t86.5 -13q59 0 99.5 26t40.5 64q0 31 -25.5 49.5t-65.5 18.5q-44 0 -110 -27l117 178q-92 17 -150 47q-84 46 -135 140.5 t-51 205.5z" />
<glyph unicode="&#xe8;" d="M131 379q0 153 63 316t162 266q72 75 186 119t234 44q229 0 342 -141q92 -119 92 -266q0 -119 -36 -254h-744q-6 -77 -6 -92q0 -85 53 -137t141 -52q74 0 137.5 35.5t92.5 93.5h282q-85 -171 -233 -264.5t-334 -93.5q-193 0 -312.5 117.5t-119.5 308.5zM467 653h451 q0 72 -5 97q-8 66 -55 105.5t-119 39.5q-207 0 -272 -242zM608 1550h244l92 -307h-129z" />
<glyph unicode="&#xe9;" d="M131 379q0 153 63 316t162 266q72 75 186 119t234 44q229 0 342 -141q92 -119 92 -266q0 -119 -36 -254h-744q-6 -77 -6 -92q0 -85 53 -137t141 -52q74 0 137.5 35.5t92.5 93.5h282q-85 -171 -233 -264.5t-334 -93.5q-193 0 -312.5 117.5t-119.5 308.5zM467 653h451 q0 72 -5 97q-8 66 -55 105.5t-119 39.5q-207 0 -272 -242zM684 1243l209 307h258l-324 -307h-143z" />
<glyph unicode="&#xea;" d="M131 379q0 153 63 316t162 266q72 75 186 119t234 44q229 0 342 -141q92 -119 92 -266q0 -119 -36 -254h-744q-6 -77 -6 -92q0 -85 53 -137t141 -52q74 0 137.5 35.5t92.5 93.5h282q-85 -171 -233 -264.5t-334 -93.5q-193 0 -312.5 117.5t-119.5 308.5zM467 653h451 q0 72 -5 97q-8 66 -55 105.5t-119 39.5q-207 0 -272 -242zM487 1249l287 301h219l146 -301h-158l-125 199l-211 -199h-158z" />
<glyph unicode="&#xeb;" d="M131 379q0 153 63 316t162 266q72 75 186 119t234 44q229 0 342 -141q92 -119 92 -266q0 -119 -36 -254h-744q-6 -77 -6 -92q0 -85 53 -137t141 -52q74 0 137.5 35.5t92.5 93.5h282q-85 -171 -233 -264.5t-334 -93.5q-193 0 -312.5 117.5t-119.5 308.5zM467 653h451 q0 72 -5 97q-8 66 -55 105.5t-119 39.5q-207 0 -272 -242zM524 1272l54 246h225l-51 -246h-228zM905 1272l53 246h226l-51 -246h-228z" />
<glyph unicode="&#xec;" horiz-adv-x="569" d="M137 0l236 1106h286l-235 -1106h-287zM301 1550h244l92 -307h-129z" />
<glyph unicode="&#xed;" horiz-adv-x="569" d="M137 0l236 1106h286l-235 -1106h-287zM451 1243l208 307h259l-324 -307h-143z" />
<glyph unicode="&#xee;" horiz-adv-x="569" d="M137 0l236 1106h286l-235 -1106h-287zM221 1249l285 301h221l145 -301h-159l-125 199l-211 -199h-156z" />
<glyph unicode="&#xef;" horiz-adv-x="569" d="M137 0l236 1106h286l-235 -1106h-287zM246 1272l53 246h225l-53 -246h-225zM627 1272l53 246h225l-53 -246h-225z" />
<glyph unicode="&#xf0;" horiz-adv-x="1251" d="M170 365q0 151 54 301.5t145 253.5q69 78 167 121.5t205 43.5q50 0 88.5 -11.5t96.5 -43.5q-76 130 -199 217l-199 -92l-84 88l181 84q-51 35 -144 94l144 103q42 -17 110 -56l58 -32q2 -2 5.5 -4t9.5 -6t11 -7l213 92l88 -88l-190 -84q200 -150 283 -293t83 -339 q0 -140 -42 -271.5t-121 -236.5q-181 -246 -508 -246q-214 0 -334.5 109t-120.5 303zM465 422q0 -135 65 -191q62 -49 138 -49q146 0 242 138.5t96 347.5q0 117 -68 168q-66 47 -145 47q-78 0 -143 -42t-109 -122q-76 -130 -76 -297z" />
<glyph unicode="&#xf1;" horiz-adv-x="1251" d="M129 0l236 1106h286l-37 -168q83 98 171 142t202 44q137 0 219 -73.5t82 -196.5q0 -54 -12 -113l-158 -741h-287l138 641q12 71 12 100q0 75 -39 114.5t-113 39.5q-104 0 -179 -72.5t-101 -199.5l-133 -623h-287zM539 1278q35 115 99.5 177.5t147.5 62.5q39 0 68 -7 t78 -28l102 -43q43 -20 57 -21h11q66 0 110 105h111q-31 -110 -84 -166q-81 -84 -188 -84q-55 0 -105 22l-102 52q-62 28 -90 28q-55 0 -105 -98h-110z" />
<glyph unicode="&#xf2;" horiz-adv-x="1251" d="M168 362q0 132 44.5 272t117.5 238q91 122 224 187t292 65q211 0 331.5 -109t120.5 -300q0 -134 -44 -274t-117 -236q-190 -252 -525 -252q-204 0 -324 110.5t-120 298.5zM461 420q0 -109 55.5 -173.5t147.5 -64.5q80 0 148.5 46t115.5 132q78 137 78 295 q0 111 -55 175.5t-150 64.5q-91 0 -169.5 -64t-124.5 -173.5t-46 -237.5zM670 1550h245l91 -307h-129z" />
<glyph unicode="&#xf3;" horiz-adv-x="1251" d="M168 362q0 132 44.5 272t117.5 238q91 122 224 187t292 65q211 0 331.5 -109t120.5 -300q0 -134 -44 -274t-117 -236q-190 -252 -525 -252q-204 0 -324 110.5t-120 298.5zM461 420q0 -109 55.5 -173.5t147.5 -64.5q80 0 148.5 46t115.5 132q78 137 78 295 q0 111 -55 175.5t-150 64.5q-91 0 -169.5 -64t-124.5 -173.5t-46 -237.5zM760 1243l209 307h258l-324 -307h-143z" />
<glyph unicode="&#xf4;" horiz-adv-x="1251" d="M168 362q0 132 44.5 272t117.5 238q91 122 224 187t292 65q211 0 331.5 -109t120.5 -300q0 -134 -44 -274t-117 -236q-190 -252 -525 -252q-204 0 -324 110.5t-120 298.5zM461 420q0 -109 55.5 -173.5t147.5 -64.5q80 0 148.5 46t115.5 132q78 137 78 295 q0 111 -55 175.5t-150 64.5q-91 0 -169.5 -64t-124.5 -173.5t-46 -237.5zM565 1249l285 301h219l148 -301h-160l-125 199l-211 -199h-156z" />
<glyph unicode="&#xf5;" horiz-adv-x="1251" d="M168 362q0 132 44.5 272t117.5 238q91 122 224 187t292 65q211 0 331.5 -109t120.5 -300q0 -134 -44 -274t-117 -236q-190 -252 -525 -252q-204 0 -324 110.5t-120 298.5zM461 420q0 -109 55.5 -173.5t147.5 -64.5q80 0 148.5 46t115.5 132q78 137 78 295 q0 111 -55 175.5t-150 64.5q-91 0 -169.5 -64t-124.5 -173.5t-46 -237.5zM473 1278q60 116 137 178t162 62q66 0 137 -35l92 -43q28 -14 37.5 -17.5t26.5 -3.5q69 0 133 105h111q-57 -120 -142 -185t-184 -65q-62 0 -98 22l-92 52q-54 28 -86 28q-55 0 -123 -98h-111z" />
<glyph unicode="&#xf6;" horiz-adv-x="1251" d="M168 362q0 132 44.5 272t117.5 238q91 122 224 187t292 65q211 0 331.5 -109t120.5 -300q0 -134 -44 -274t-117 -236q-190 -252 -525 -252q-204 0 -324 110.5t-120 298.5zM461 420q0 -109 55.5 -173.5t147.5 -64.5q80 0 148.5 46t115.5 132q78 137 78 295 q0 111 -55 175.5t-150 64.5q-91 0 -169.5 -64t-124.5 -173.5t-46 -237.5zM584 1272l53 246h225l-53 -246h-225zM965 1272l53 246h225l-53 -246h-225z" />
<glyph unicode="&#xf7;" horiz-adv-x="1196" d="M158 352l51 246h1032l-51 -246h-1032zM496 100q0 60 47.5 107t107.5 47q46 0 74.5 -29t28.5 -75q0 -58 -48 -104t-108 -46q-44 0 -73 28.5t-29 71.5zM643 793q0 60 48 106.5t108 46.5q46 0 74 -29t28 -75q0 -57 -48 -103.5t-108 -46.5q-44 0 -73 29t-29 72z" />
<glyph unicode="&#xf8;" horiz-adv-x="1251" d="M25 4l190 160q-43 93 -43 201q0 132 45 271t119 236q92 122 226 187t292 65q231 0 354 -129l174 146l70 -84l-186 -156q37 -90 37 -194q0 -127 -46 -266.5t-118 -235.5q-92 -122 -225.5 -187t-290.5 -65q-223 0 -347 121l-182 -152zM465 426q0 -28 2 -51l512 428 q-58 92 -170 92q-82 0 -150.5 -46t-115.5 -132q-35 -63 -56.5 -142t-21.5 -149zM504 264q26 -38 71 -60t97 -22q91 0 167 62t122 172q51 114 51 241q0 17 -2 31z" />
<glyph unicode="&#xf9;" horiz-adv-x="1251" d="M180 223q0 50 13 113l163 770h287l-141 -670q-15 -64 -15 -100q0 -154 156 -154q100 0 174.5 74t100.5 199l139 651h286l-235 -1106h-287l31 139q-85 -99 -172 -142.5t-201 -43.5q-135 0 -217 73.5t-82 196.5zM666 1550h243l92 -307h-131z" />
<glyph unicode="&#xfa;" horiz-adv-x="1251" d="M180 223q0 50 13 113l163 770h287l-141 -670q-15 -64 -15 -100q0 -154 156 -154q100 0 174.5 74t100.5 199l139 651h286l-235 -1106h-287l31 139q-85 -99 -172 -142.5t-201 -43.5q-135 0 -217 73.5t-82 196.5zM735 1243l207 307h260l-323 -307h-144z" />
<glyph unicode="&#xfb;" horiz-adv-x="1251" d="M180 223q0 50 13 113l163 770h287l-141 -670q-15 -64 -15 -100q0 -154 156 -154q100 0 174.5 74t100.5 199l139 651h286l-235 -1106h-287l31 139q-85 -99 -172 -142.5t-201 -43.5q-135 0 -217 73.5t-82 196.5zM545 1249l286 301h220l145 -301h-158l-125 199l-211 -199 h-157z" />
<glyph unicode="&#xfc;" horiz-adv-x="1251" d="M180 223q0 50 13 113l163 770h287l-141 -670q-15 -64 -15 -100q0 -154 156 -154q100 0 174.5 74t100.5 199l139 651h286l-235 -1106h-287l31 139q-85 -99 -172 -142.5t-201 -43.5q-135 0 -217 73.5t-82 196.5zM582 1272l53 246h225l-51 -246h-227zM963 1272l53 246h225 l-51 -246h-227z" />
<glyph unicode="&#xfd;" d="M76 -440l47 223q23 -4 57 -4q106 0 169 51.5t63 138.5l-2 31l-156 1106h315l74 -805l399 805h295l-733 -1307q-55 -99 -98 -143t-111 -70q-90 -35 -227 -35q-51 0 -92 9zM692 1243l209 307h258l-323 -307h-144z" />
<glyph unicode="&#xfe;" horiz-adv-x="1251" d="M23 -446l411 1939h287l-117 -551q139 182 346 182q163 0 259 -114.5t96 -307.5q0 -152 -47.5 -290.5t-128 -239t-191.5 -160t-233 -59.5q-108 0 -174.5 43t-98.5 135l-123 -577h-286zM504 414q0 -105 49 -168.5t131 -63.5q86 0 162 65.5t121 176.5t45 238q0 107 -49 170 t-132 63q-86 0 -162 -66t-120.5 -177t-44.5 -238z" />
<glyph unicode="&#xff;" d="M76 -440l47 223q23 -4 57 -4q106 0 169 51.5t63 138.5l-2 31l-156 1106h315l74 -805l399 805h295l-733 -1307q-55 -99 -98 -143t-111 -70q-90 -35 -227 -35q-51 0 -92 9zM535 1272l51 246h227l-53 -246h-225zM915 1272l52 246h227l-53 -246h-226z" />
<glyph unicode="&#x152;" horiz-adv-x="2048" d="M184 502q0 203 78.5 414t206.5 352q229 250 518 250q101 0 168.5 -30.5t124.5 -101.5l23 107h964l-55 -256h-668l-71 -338h610l-55 -256h-611l-82 -387h707l-53 -256h-1004l25 121q-87 -93 -163.5 -130.5t-178.5 -37.5q-218 0 -351 150.5t-133 398.5zM489 561 q0 -164 77.5 -255t217.5 -91q83 0 145 35t122 115l157 741q-29 78 -82 113.5t-139 35.5q-242 0 -387 -268q-111 -199 -111 -426z" />
<glyph unicode="&#x153;" horiz-adv-x="1933" d="M145 360q0 133 45 273t119 239q92 122 225.5 187t290.5 65q122 0 219.5 -38.5t149.5 -108.5q71 69 176.5 108t222.5 39q221 0 334 -141q92 -119 92 -264q0 -120 -37 -256h-741q-14 -62 -14 -107q0 -77 54.5 -125.5t141.5 -48.5q75 0 139 35.5t95 93.5h282 q-82 -164 -237 -261t-338 -97q-114 0 -207.5 40.5t-136.5 108.5q-80 -71 -193 -110t-237 -39q-206 0 -325.5 109t-119.5 298zM438 420q0 -109 55.5 -173.5t147.5 -64.5q80 0 148.5 46t115.5 132q78 137 78 295q0 111 -55 175.5t-150 64.5q-91 0 -169.5 -64t-124.5 -173.5 t-46 -237.5zM1284 653h442v58q0 88 -45.5 136t-128.5 48q-98 0 -167 -62t-101 -180z" />
<glyph unicode="&#x178;" horiz-adv-x="1366" d="M373 1493h342l168 -645l424 645h342l-672 -940l-119 -553h-307l119 553zM735 1638l53 246h226l-53 -246h-226zM1116 1638l53 246h226l-54 -246h-225z" />
<glyph unicode="&#x2c6;" horiz-adv-x="681" d="M276 1249l285 301h221l146 -301h-160l-125 199l-211 -199h-156z" />
<glyph unicode="&#x2dc;" horiz-adv-x="681" d="M240 1278q35 115 99.5 177.5t147.5 62.5q39 0 68 -7t78 -28l102 -43q43 -20 57 -21h11q67 0 110 105h111q-31 -110 -84 -166q-81 -84 -188 -84q-56 0 -105 22l-102 52q-62 28 -90 28q-55 0 -105 -98h-110z" />
<glyph unicode="&#x2000;" horiz-adv-x="976" />
<glyph unicode="&#x2001;" horiz-adv-x="1952" />
<glyph unicode="&#x2002;" horiz-adv-x="976" />
<glyph unicode="&#x2003;" horiz-adv-x="1952" />
<glyph unicode="&#x2004;" horiz-adv-x="650" />
<glyph unicode="&#x2005;" horiz-adv-x="488" />
<glyph unicode="&#x2006;" horiz-adv-x="325" />
<glyph unicode="&#x2007;" horiz-adv-x="325" />
<glyph unicode="&#x2008;" horiz-adv-x="244" />
<glyph unicode="&#x2009;" horiz-adv-x="390" />
<glyph unicode="&#x200a;" horiz-adv-x="108" />
<glyph unicode="&#x2010;" horiz-adv-x="681" d="M143 424l60 276h557l-60 -276h-557z" />
<glyph unicode="&#x2011;" horiz-adv-x="681" d="M143 424l60 276h557l-60 -276h-557z" />
<glyph unicode="&#x2012;" horiz-adv-x="681" d="M143 424l60 276h557l-60 -276h-557z" />
<glyph unicode="&#x2013;" d="M72 424l45 213h1161l-45 -213h-1161z" />
<glyph unicode="&#x2014;" horiz-adv-x="2048" d="M76 424l45 213h2070l-45 -213h-2070z" />
<glyph unicode="&#x2018;" horiz-adv-x="569" d="M342 961l47 223q22 133 113.5 215.5t228.5 93.5l-20 -94q-176 -30 -203 -182h166l-56 -256h-276z" />
<glyph unicode="&#x2019;" horiz-adv-x="569" d="M338 961l20 94q176 30 203 182h-166l56 256h278l-47 -223q-19 -135 -109.5 -217t-234.5 -92z" />
<glyph unicode="&#x201a;" horiz-adv-x="569" d="M76 -276l20 94q176 30 203 182h-166l55 256h279l-47 -223q-19 -135 -109.5 -217t-234.5 -92z" />
<glyph unicode="&#x201c;" horiz-adv-x="1024" d="M350 961l47 223q22 133 113.5 215.5t228.5 93.5l-20 -94q-176 -30 -203 -182h166l-55 -256h-277zM815 961l47 223q22 133 113.5 215.5t228.5 93.5l-20 -94q-176 -30 -203 -182h166l-55 -256h-277z" />
<glyph unicode="&#x201d;" horiz-adv-x="1024" d="M354 961l21 94q176 30 203 182h-166l55 256h276l-47 -223q-22 -133 -113.5 -215.5t-228.5 -93.5zM829 961l21 94q176 30 203 182h-166l55 256h277l-48 -223q-22 -133 -113.5 -215.5t-228.5 -93.5z" />
<glyph unicode="&#x201e;" horiz-adv-x="1024" d="M76 -276l20 94q176 30 203 182h-166l55 256h277l-47 -223q-22 -133 -113.5 -215.5t-228.5 -93.5zM557 -276l21 94q175 29 202 182h-166l56 256h276l-47 -223q-22 -133 -113.5 -215.5t-228.5 -93.5z" />
<glyph unicode="&#x2022;" horiz-adv-x="716" d="M227 571q0 119 90.5 209t210.5 90q95 0 159.5 -61t64.5 -152q0 -117 -94 -208t-214 -91q-94 0 -155.5 60.5t-61.5 152.5z" />
<glyph unicode="&#x2026;" horiz-adv-x="2048" d="M188 0l64 299h307l-63 -299h-308zM870 0l64 299h307l-63 -299h-308zM1552 0l64 299h307l-63 -299h-308z" />
<glyph unicode="&#x202f;" horiz-adv-x="390" />
<glyph unicode="&#x2039;" horiz-adv-x="681" d="M262 446l49 234l408 305l-51 -240l-246 -182l168 -182l-49 -234z" />
<glyph unicode="&#x203a;" horiz-adv-x="681" d="M197 147l51 240l246 182l-168 183l49 233l278 -299l-49 -235z" />
<glyph unicode="&#x205f;" horiz-adv-x="488" />
<glyph unicode="&#x20ac;" d="M43 512l80 139h80q14 84 30 140h-131l80 139h99q114 263 297.5 408t402.5 145q109 0 180 -28.5t166 -111.5l-149 -264q-79 76 -139 107t-128 31q-97 0 -182 -73t-149 -214h514l-80 -139h-492q-21 -72 -33 -140h445l-78 -139h-371q11 -141 65 -216t146 -75q62 0 124.5 21 t197.5 86l-64 -305q-134 -41 -201 -55.5t-128 -14.5q-120 0 -223.5 63.5t-149.5 163.5q-56 126 -59 332h-150z" />
<glyph unicode="&#x2122;" horiz-adv-x="2048" d="M436 1329l35 164h748l-35 -164h-273l-163 -770h-195l164 770h-281zM1118 559l199 934h282l23 -719l324 719h280l-198 -934h-187l152 715l-322 -715h-192l-21 715l-153 -715h-187z" />
<glyph unicode="&#x25fc;" horiz-adv-x="1105" d="M0 0v1106h1106v-1106h-1106z" />
<glyph unicode="&#xfb04;" horiz-adv-x="1931" d="M184 0l191 893h-158l41 190h156l28 134q31 143 115.5 209.5t235.5 66.5q61 0 157 -6l-45 -215q-68 8 -86 8q-76 0 -94 -88l-25 -109h170l-41 -190h-167l-191 -893h-287zM866 0l191 893h-158l41 190h156l28 134q31 143 115.5 209.5t235.5 66.5q61 0 157 -6l-45 -215 q-68 8 -86 8q-76 0 -94 -88l-25 -109h170l-41 -190h-168l-190 -893h-287zM1501 0l318 1493h286l-317 -1493h-287z" />
</font>
</defs>
</svg>
