<svg version="1" xmlns="http://www.w3.org/2000/svg" viewBox="0 0 512 512">
  <path d="M419 0H93C70 0 51 19 51 42v452h36V42c0-3 3-6 6-6h326c3 0 6 3 6 6v452h36V42c0-23-19-42-42-42z"/>
  <path d="M214 72h-72c-10 0-19 8-19 18v73c0 10 9 18 19 18h72c10 0 18-8 18-18V90c0-10-8-18-18-18zm-18 73h-36v-37h36v37zM364 72h-72c-10 0-18 8-18 18v73c0 10 8 18 18 18h72c10 0 18-8 18-18V90c0-10-8-18-18-18zm-18 73h-36v-37h36v37zM214 217h-72c-10 0-19 8-19 18v72c0 10 9 18 19 18h72c10 0 18-8 18-18v-72c0-10-8-18-18-18zm-18 72h-36v-36h36v36zM364 217h-72c-10 0-18 8-18 18v72c0 10 8 18 18 18h72c10 0 18-8 18-18v-72c0-10-8-18-18-18zm-18 72h-36v-36h36v36zM334 361H172c-10 0-18 9-18 18v115h36v-96h126v96h36V379c0-9-8-18-18-18z"/>
  <path d="M491 476H21a18 18 0 1 0 0 36h470a18 18 0 1 0 0-36z"/>
</svg>
