<?xml version="1.0" encoding="iso-8859-1"?>
<!-- Generator: Adobe Illustrator 18.0.0, SVG Export Plug-In . SVG Version: 6.00 Build 0)  -->
<!DOCTYPE svg PUBLIC "-//W3C//DTD SVG 1.1//EN" "http://www.w3.org/Graphics/SVG/1.1/DTD/svg11.dtd">
<svg version="1.1" id="Capa_1" xmlns="http://www.w3.org/2000/svg" xmlns:xlink="http://www.w3.org/1999/xlink" x="0px" y="0px"
	 viewBox="0 0 329.098 329.098" style="enable-background:new 0 0 329.098 329.098;" xml:space="preserve">
<path fill="#66757f" d="M288.117,173.019c5.879,0,11.551,2.181,15.971,6.142c4.409,3.95,10.725,4.937,16.127,2.523
	c5.403-2.414,8.882-7.778,8.882-13.695V79.993c0-8.284-6.716-15-15-15h-64.182c0.745-3.584,1.128-7.261,1.128-10.978
	C251.042,24.231,226.812,0,197.029,0c-29.784,0-54.016,24.231-54.016,54.016c0,3.715,0.383,7.392,1.13,10.978H79.992
	c-8.284,0-15,6.716-15,15v64.16c-3.589-0.75-7.268-1.134-10.983-1.134C24.228,143.019,0,167.255,0,197.046
	c0,29.794,24.228,54.033,54.008,54.033c3.716,0,7.393-0.384,10.983-1.134v64.152c0,8.284,6.716,15,15,15h87.975
	c0.007,0,0.014,0,0.02,0c8.284,0,15-6.716,15-15c0-4.035-1.593-7.698-4.185-10.393c-3.737-4.358-5.788-9.871-5.788-15.584
	c0-13.241,10.773-24.014,24.016-24.014c13.25,0,24.029,10.772,24.029,24.014c0,5.885-2.178,11.553-6.132,15.96
	c-3.954,4.406-4.946,10.725-2.534,16.131c2.412,5.406,7.778,8.887,13.698,8.887h88.007c8.284,0,15-6.716,15-15v-87.984
	c0-5.917-3.479-11.282-8.882-13.696c-5.401-2.413-11.72-1.425-16.127,2.524c-4.417,3.958-10.089,6.138-15.971,6.138
	c-13.24,0-24.011-10.781-24.011-24.033C264.106,183.797,274.877,173.019,288.117,173.019z M288.117,251.079
	c3.716,0,7.393-0.384,10.98-1.131v49.15h-49.169c0.747-3.585,1.13-7.262,1.13-10.978c0-29.783-24.237-54.014-54.029-54.014
	c-29.784,0-54.016,24.231-54.016,54.014c0,3.716,0.383,7.392,1.129,10.978H94.992v-72.984c0-5.914-3.475-11.276-8.874-13.692
	c-5.399-2.416-11.712-1.433-16.122,2.507c-4.438,3.966-10.116,6.15-15.987,6.15C40.77,221.079,30,210.298,30,197.046
	c0-13.249,10.77-24.027,24.008-24.027c5.869,0,11.547,2.186,15.988,6.154c4.409,3.94,10.722,4.92,16.122,2.507
	c5.398-2.416,8.873-7.778,8.873-13.692V94.993h72.975c5.916,0,11.279-3.477,13.694-8.878c2.415-5.4,1.429-11.716-2.516-16.124
	c-3.954-4.419-6.131-10.092-6.131-15.975c0-13.242,10.773-24.016,24.016-24.016c13.241,0,24.014,10.773,24.014,24.016
	c0,5.895-2.173,11.564-6.118,15.961c-3.953,4.406-4.945,10.725-2.532,16.13c2.412,5.405,7.778,8.886,13.698,8.886h73.007v49.158
	c-3.587-0.748-7.264-1.132-10.98-1.132c-29.782,0-54.011,24.236-54.011,54.027C234.106,226.84,258.335,251.079,288.117,251.079z"/>
<g>
</g>
<g>
</g>
<g>
</g>
<g>
</g>
<g>
</g>
<g>
</g>
<g>
</g>
<g>
</g>
<g>
</g>
<g>
</g>
<g>
</g>
<g>
</g>
<g>
</g>
<g>
</g>
<g>
</g>
</svg>
